%FSLAX45Y45*%
G04 Gerber Fmt 4.5, Leading zero omitted, Abs format (unit mm)*
G04 Created by KiCad (PCBNEW 4.0.2-stable) date 3/20/2016 1:32:20 PM*
%MOMM*%
G01*
G04 APERTURE LIST*
%ADD10C,0.127000*%
%ADD11C,0.150000*%
%ADD12C,0.200000*%
%ADD13C,0.300000*%
G04 APERTURE END LIST*
D10*
D11*
X11700000Y-9000000D02*
X11700000Y-12000000D01*
X16700000Y-9500000D02*
X16700000Y-7000000D01*
X11700000Y-9000000D02*
X11700000Y-7000000D01*
X16700000Y-9500000D02*
X16700000Y-12000000D01*
X16700000Y-12000000D02*
X11700000Y-12000000D01*
X11700000Y-7000000D02*
X16700000Y-7000000D01*
D12*
X14372400Y-11573600D02*
X14412400Y-11613600D01*
X14412400Y-11573600D02*
X14372400Y-11613600D01*
X15261400Y-11624400D02*
X15301400Y-11664400D01*
X15301400Y-11624400D02*
X15261400Y-11664400D01*
X15591600Y-11776800D02*
X15631600Y-11816800D01*
X15631600Y-11776800D02*
X15591600Y-11816800D01*
X12908400Y-9612400D02*
G75*
G03X12908400Y-9612400I-40000J0D01*
G01*
X13162400Y-9612400D02*
G75*
G03X13162400Y-9612400I-40000J0D01*
G01*
X13391000Y-9612400D02*
G75*
G03X13391000Y-9612400I-40000J0D01*
G01*
X13721200Y-10641100D02*
G75*
G03X13721200Y-10641100I-40000J0D01*
G01*
X13721200Y-11403100D02*
G75*
G03X13721200Y-11403100I-40000J0D01*
G01*
X13975200Y-10641100D02*
G75*
G03X13975200Y-10641100I-40000J0D01*
G01*
X13975200Y-11403100D02*
G75*
G03X13975200Y-11403100I-40000J0D01*
G01*
X14000600Y-9256800D02*
G75*
G03X14000600Y-9256800I-40000J0D01*
G01*
X14000600Y-10256800D02*
G75*
G03X14000600Y-10256800I-40000J0D01*
G01*
X14229200Y-10641100D02*
G75*
G03X14229200Y-10641100I-40000J0D01*
G01*
X14229200Y-11403100D02*
G75*
G03X14229200Y-11403100I-40000J0D01*
G01*
X14356200Y-9612400D02*
G75*
G03X14356200Y-9612400I-40000J0D01*
G01*
X14584800Y-9612400D02*
G75*
G03X14584800Y-9612400I-40000J0D01*
G01*
X14788000Y-9612400D02*
G75*
G03X14788000Y-9612400I-40000J0D01*
G01*
X14800700Y-10641100D02*
G75*
G03X14800700Y-10641100I-40000J0D01*
G01*
X14800700Y-11403100D02*
G75*
G03X14800700Y-11403100I-40000J0D01*
G01*
X15054700Y-10641100D02*
G75*
G03X15054700Y-10641100I-40000J0D01*
G01*
X15054700Y-11403100D02*
G75*
G03X15054700Y-11403100I-40000J0D01*
G01*
X15270600Y-9256800D02*
G75*
G03X15270600Y-9256800I-40000J0D01*
G01*
X15270600Y-10256800D02*
G75*
G03X15270600Y-10256800I-40000J0D01*
G01*
X15308700Y-10641100D02*
G75*
G03X15308700Y-10641100I-40000J0D01*
G01*
X15308700Y-11403100D02*
G75*
G03X15308700Y-11403100I-40000J0D01*
G01*
X15575400Y-9612400D02*
G75*
G03X15575400Y-9612400I-40000J0D01*
G01*
X15804000Y-9612400D02*
G75*
G03X15804000Y-9612400I-40000J0D01*
G01*
X15905600Y-10653800D02*
G75*
G03X15905600Y-10653800I-40000J0D01*
G01*
X15905600Y-11415800D02*
G75*
G03X15905600Y-11415800I-40000J0D01*
G01*
X16007200Y-9612400D02*
G75*
G03X16007200Y-9612400I-40000J0D01*
G01*
X16159600Y-10653800D02*
G75*
G03X16159600Y-10653800I-40000J0D01*
G01*
X16159600Y-11415800D02*
G75*
G03X16159600Y-11415800I-40000J0D01*
G01*
X16388200Y-9256800D02*
G75*
G03X16388200Y-9256800I-40000J0D01*
G01*
X16388200Y-10256800D02*
G75*
G03X16388200Y-10256800I-40000J0D01*
G01*
X16413600Y-10653800D02*
G75*
G03X16413600Y-10653800I-40000J0D01*
G01*
X16413600Y-11415800D02*
G75*
G03X16413600Y-11415800I-40000J0D01*
G01*
X12500100Y-8457462D02*
X12500100Y-8557538D01*
X12450062Y-8507500D02*
X12550138Y-8507500D01*
X13757400Y-8774962D02*
X13757400Y-8875038D01*
X13707362Y-8825000D02*
X13807438Y-8825000D01*
X14000100Y-8457462D02*
X14000100Y-8557538D01*
X13950062Y-8507500D02*
X14050138Y-8507500D01*
X15052800Y-8444762D02*
X15052800Y-8544838D01*
X15002762Y-8494800D02*
X15102838Y-8494800D01*
X15257400Y-8774962D02*
X15257400Y-8875038D01*
X15207362Y-8825000D02*
X15307438Y-8825000D01*
X16552800Y-8444762D02*
X16552800Y-8544838D01*
X16502762Y-8494800D02*
X16602838Y-8494800D01*
X11989921Y-11654921D02*
X11989921Y-11583079D01*
X11918079Y-11583079D01*
X11918079Y-11654921D01*
X11989921Y-11654921D01*
X12243921Y-11654921D02*
X12243921Y-11583079D01*
X12172079Y-11583079D01*
X12172079Y-11654921D01*
X12243921Y-11654921D01*
X12497921Y-11654921D02*
X12497921Y-11583079D01*
X12426079Y-11583079D01*
X12426079Y-11654921D01*
X12497921Y-11654921D01*
X12751921Y-11654921D02*
X12751921Y-11583079D01*
X12680079Y-11583079D01*
X12680079Y-11654921D01*
X12751921Y-11654921D01*
X13005921Y-11654921D02*
X13005921Y-11583079D01*
X12934079Y-11583079D01*
X12934079Y-11654921D01*
X13005921Y-11654921D01*
X13259921Y-11654921D02*
X13259921Y-11583079D01*
X13188079Y-11583079D01*
X13188079Y-11654921D01*
X13259921Y-11654921D01*
X12241400Y-7543800D02*
X12306400Y-7478800D01*
X12241400Y-7413800D01*
X12176400Y-7478800D01*
X12241400Y-7543800D01*
X12741400Y-7543800D02*
X12806400Y-7478800D01*
X12741400Y-7413800D01*
X12676400Y-7478800D01*
X12741400Y-7543800D01*
X13308200Y-7543800D02*
X13373200Y-7478800D01*
X13308200Y-7413800D01*
X13243200Y-7478800D01*
X13308200Y-7543800D01*
X13808200Y-7543800D02*
X13873200Y-7478800D01*
X13808200Y-7413800D01*
X13743200Y-7478800D01*
X13808200Y-7543800D01*
X14375000Y-7543800D02*
X14440000Y-7478800D01*
X14375000Y-7413800D01*
X14310000Y-7478800D01*
X14375000Y-7543800D01*
X14875000Y-7543800D02*
X14940000Y-7478800D01*
X14875000Y-7413800D01*
X14810000Y-7478800D01*
X14875000Y-7543800D01*
X15441800Y-7543800D02*
X15506800Y-7478800D01*
X15441800Y-7413800D01*
X15376800Y-7478800D01*
X15441800Y-7543800D01*
X15941800Y-7543800D02*
X16006800Y-7478800D01*
X15941800Y-7413800D01*
X15876800Y-7478800D01*
X15941800Y-7543800D01*
D13*
X11963928Y-12473214D02*
X11963928Y-12173214D01*
X12035357Y-12173214D01*
X12078214Y-12187500D01*
X12106786Y-12216071D01*
X12121071Y-12244643D01*
X12135357Y-12301786D01*
X12135357Y-12344643D01*
X12121071Y-12401786D01*
X12106786Y-12430357D01*
X12078214Y-12458929D01*
X12035357Y-12473214D01*
X11963928Y-12473214D01*
X12263928Y-12473214D02*
X12263928Y-12273214D01*
X12263928Y-12330357D02*
X12278214Y-12301786D01*
X12292500Y-12287500D01*
X12321071Y-12273214D01*
X12349643Y-12273214D01*
X12449643Y-12473214D02*
X12449643Y-12273214D01*
X12449643Y-12173214D02*
X12435357Y-12187500D01*
X12449643Y-12201786D01*
X12463928Y-12187500D01*
X12449643Y-12173214D01*
X12449643Y-12201786D01*
X12635357Y-12473214D02*
X12606786Y-12458929D01*
X12592500Y-12430357D01*
X12592500Y-12173214D01*
X12792500Y-12473214D02*
X12763928Y-12458929D01*
X12749643Y-12430357D01*
X12749643Y-12173214D01*
X13135357Y-12473214D02*
X13135357Y-12173214D01*
X13235357Y-12387500D01*
X13335357Y-12173214D01*
X13335357Y-12473214D01*
X13606786Y-12473214D02*
X13606786Y-12316071D01*
X13592500Y-12287500D01*
X13563928Y-12273214D01*
X13506786Y-12273214D01*
X13478214Y-12287500D01*
X13606786Y-12458929D02*
X13578214Y-12473214D01*
X13506786Y-12473214D01*
X13478214Y-12458929D01*
X13463928Y-12430357D01*
X13463928Y-12401786D01*
X13478214Y-12373214D01*
X13506786Y-12358929D01*
X13578214Y-12358929D01*
X13606786Y-12344643D01*
X13749643Y-12273214D02*
X13749643Y-12573214D01*
X13749643Y-12287500D02*
X13778214Y-12273214D01*
X13835357Y-12273214D01*
X13863928Y-12287500D01*
X13878214Y-12301786D01*
X13892500Y-12330357D01*
X13892500Y-12416071D01*
X13878214Y-12444643D01*
X13863928Y-12458929D01*
X13835357Y-12473214D01*
X13778214Y-12473214D01*
X13749643Y-12458929D01*
X14021071Y-12444643D02*
X14035357Y-12458929D01*
X14021071Y-12473214D01*
X14006786Y-12458929D01*
X14021071Y-12444643D01*
X14021071Y-12473214D01*
X14021071Y-12287500D02*
X14035357Y-12301786D01*
X14021071Y-12316071D01*
X14006786Y-12301786D01*
X14021071Y-12287500D01*
X14021071Y-12316071D01*
X11652500Y-12947500D02*
X11692500Y-12987500D01*
X11692500Y-12947500D02*
X11652500Y-12987500D01*
X12021071Y-12803214D02*
X12049643Y-12803214D01*
X12078214Y-12817500D01*
X12092500Y-12831786D01*
X12106786Y-12860357D01*
X12121071Y-12917500D01*
X12121071Y-12988929D01*
X12106786Y-13046071D01*
X12092500Y-13074643D01*
X12078214Y-13088929D01*
X12049643Y-13103214D01*
X12021071Y-13103214D01*
X11992500Y-13088929D01*
X11978214Y-13074643D01*
X11963928Y-13046071D01*
X11949643Y-12988929D01*
X11949643Y-12917500D01*
X11963928Y-12860357D01*
X11978214Y-12831786D01*
X11992500Y-12817500D01*
X12021071Y-12803214D01*
X12249643Y-13074643D02*
X12263928Y-13088929D01*
X12249643Y-13103214D01*
X12235357Y-13088929D01*
X12249643Y-13074643D01*
X12249643Y-13103214D01*
X12521071Y-12903214D02*
X12521071Y-13103214D01*
X12449643Y-12788929D02*
X12378214Y-13003214D01*
X12563928Y-13003214D01*
X12735357Y-12803214D02*
X12763928Y-12803214D01*
X12792500Y-12817500D01*
X12806786Y-12831786D01*
X12821071Y-12860357D01*
X12835357Y-12917500D01*
X12835357Y-12988929D01*
X12821071Y-13046071D01*
X12806786Y-13074643D01*
X12792500Y-13088929D01*
X12763928Y-13103214D01*
X12735357Y-13103214D01*
X12706786Y-13088929D01*
X12692500Y-13074643D01*
X12678214Y-13046071D01*
X12663928Y-12988929D01*
X12663928Y-12917500D01*
X12678214Y-12860357D01*
X12692500Y-12831786D01*
X12706786Y-12817500D01*
X12735357Y-12803214D01*
X12963928Y-13103214D02*
X12963928Y-12903214D01*
X12963928Y-12931786D02*
X12978214Y-12917500D01*
X13006786Y-12903214D01*
X13049643Y-12903214D01*
X13078214Y-12917500D01*
X13092500Y-12946071D01*
X13092500Y-13103214D01*
X13092500Y-12946071D02*
X13106786Y-12917500D01*
X13135357Y-12903214D01*
X13178214Y-12903214D01*
X13206786Y-12917500D01*
X13221071Y-12946071D01*
X13221071Y-13103214D01*
X13363928Y-13103214D02*
X13363928Y-12903214D01*
X13363928Y-12931786D02*
X13378214Y-12917500D01*
X13406786Y-12903214D01*
X13449643Y-12903214D01*
X13478214Y-12917500D01*
X13492500Y-12946071D01*
X13492500Y-13103214D01*
X13492500Y-12946071D02*
X13506786Y-12917500D01*
X13535357Y-12903214D01*
X13578214Y-12903214D01*
X13606786Y-12917500D01*
X13621071Y-12946071D01*
X13621071Y-13103214D01*
X14206786Y-12788929D02*
X13949643Y-13174643D01*
X14592500Y-12803214D02*
X14621071Y-12803214D01*
X14649643Y-12817500D01*
X14663928Y-12831786D01*
X14678214Y-12860357D01*
X14692500Y-12917500D01*
X14692500Y-12988929D01*
X14678214Y-13046071D01*
X14663928Y-13074643D01*
X14649643Y-13088929D01*
X14621071Y-13103214D01*
X14592500Y-13103214D01*
X14563928Y-13088929D01*
X14549643Y-13074643D01*
X14535357Y-13046071D01*
X14521071Y-12988929D01*
X14521071Y-12917500D01*
X14535357Y-12860357D01*
X14549643Y-12831786D01*
X14563928Y-12817500D01*
X14592500Y-12803214D01*
X14821071Y-13074643D02*
X14835357Y-13088929D01*
X14821071Y-13103214D01*
X14806786Y-13088929D01*
X14821071Y-13074643D01*
X14821071Y-13103214D01*
X15021071Y-12803214D02*
X15049643Y-12803214D01*
X15078214Y-12817500D01*
X15092500Y-12831786D01*
X15106785Y-12860357D01*
X15121071Y-12917500D01*
X15121071Y-12988929D01*
X15106785Y-13046071D01*
X15092500Y-13074643D01*
X15078214Y-13088929D01*
X15049643Y-13103214D01*
X15021071Y-13103214D01*
X14992500Y-13088929D01*
X14978214Y-13074643D01*
X14963928Y-13046071D01*
X14949643Y-12988929D01*
X14949643Y-12917500D01*
X14963928Y-12860357D01*
X14978214Y-12831786D01*
X14992500Y-12817500D01*
X15021071Y-12803214D01*
X15406785Y-13103214D02*
X15235357Y-13103214D01*
X15321071Y-13103214D02*
X15321071Y-12803214D01*
X15292500Y-12846071D01*
X15263928Y-12874643D01*
X15235357Y-12888929D01*
X15663928Y-12803214D02*
X15606785Y-12803214D01*
X15578214Y-12817500D01*
X15563928Y-12831786D01*
X15535357Y-12874643D01*
X15521071Y-12931786D01*
X15521071Y-13046071D01*
X15535357Y-13074643D01*
X15549643Y-13088929D01*
X15578214Y-13103214D01*
X15635357Y-13103214D01*
X15663928Y-13088929D01*
X15678214Y-13074643D01*
X15692500Y-13046071D01*
X15692500Y-12974643D01*
X15678214Y-12946071D01*
X15663928Y-12931786D01*
X15635357Y-12917500D01*
X15578214Y-12917500D01*
X15549643Y-12931786D01*
X15535357Y-12946071D01*
X15521071Y-12974643D01*
X15806786Y-12803214D02*
X15806786Y-12860357D01*
X15921071Y-12803214D02*
X15921071Y-12860357D01*
X16363928Y-13217500D02*
X16349643Y-13203214D01*
X16321071Y-13160357D01*
X16306785Y-13131786D01*
X16292500Y-13088929D01*
X16278214Y-13017500D01*
X16278214Y-12960357D01*
X16292500Y-12888929D01*
X16306785Y-12846071D01*
X16321071Y-12817500D01*
X16349643Y-12774643D01*
X16363928Y-12760357D01*
X16449643Y-12803214D02*
X16635357Y-12803214D01*
X16535357Y-12917500D01*
X16578214Y-12917500D01*
X16606785Y-12931786D01*
X16621071Y-12946071D01*
X16635357Y-12974643D01*
X16635357Y-13046071D01*
X16621071Y-13074643D01*
X16606785Y-13088929D01*
X16578214Y-13103214D01*
X16492500Y-13103214D01*
X16463928Y-13088929D01*
X16449643Y-13074643D01*
X16992500Y-13103214D02*
X16992500Y-12803214D01*
X17121071Y-13103214D02*
X17121071Y-12946071D01*
X17106786Y-12917500D01*
X17078214Y-12903214D01*
X17035357Y-12903214D01*
X17006786Y-12917500D01*
X16992500Y-12931786D01*
X17306786Y-13103214D02*
X17278214Y-13088929D01*
X17263928Y-13074643D01*
X17249643Y-13046071D01*
X17249643Y-12960357D01*
X17263928Y-12931786D01*
X17278214Y-12917500D01*
X17306786Y-12903214D01*
X17349643Y-12903214D01*
X17378214Y-12917500D01*
X17392500Y-12931786D01*
X17406786Y-12960357D01*
X17406786Y-13046071D01*
X17392500Y-13074643D01*
X17378214Y-13088929D01*
X17349643Y-13103214D01*
X17306786Y-13103214D01*
X17578214Y-13103214D02*
X17549643Y-13088929D01*
X17535357Y-13060357D01*
X17535357Y-12803214D01*
X17806786Y-13088929D02*
X17778214Y-13103214D01*
X17721071Y-13103214D01*
X17692500Y-13088929D01*
X17678214Y-13060357D01*
X17678214Y-12946071D01*
X17692500Y-12917500D01*
X17721071Y-12903214D01*
X17778214Y-12903214D01*
X17806786Y-12917500D01*
X17821071Y-12946071D01*
X17821071Y-12974643D01*
X17678214Y-13003214D01*
X17935357Y-13088929D02*
X17963929Y-13103214D01*
X18021071Y-13103214D01*
X18049643Y-13088929D01*
X18063929Y-13060357D01*
X18063929Y-13046071D01*
X18049643Y-13017500D01*
X18021071Y-13003214D01*
X17978214Y-13003214D01*
X17949643Y-12988929D01*
X17935357Y-12960357D01*
X17935357Y-12946071D01*
X17949643Y-12917500D01*
X17978214Y-12903214D01*
X18021071Y-12903214D01*
X18049643Y-12917500D01*
X18163928Y-13217500D02*
X18178214Y-13203214D01*
X18206786Y-13160357D01*
X18221071Y-13131786D01*
X18235357Y-13088929D01*
X18249643Y-13017500D01*
X18249643Y-12960357D01*
X18235357Y-12888929D01*
X18221071Y-12846071D01*
X18206786Y-12817500D01*
X18178214Y-12774643D01*
X18163928Y-12760357D01*
X11692500Y-13363500D02*
G75*
G03X11692500Y-13363500I-40000J0D01*
G01*
X12021071Y-13199214D02*
X12049643Y-13199214D01*
X12078214Y-13213500D01*
X12092500Y-13227786D01*
X12106786Y-13256357D01*
X12121071Y-13313500D01*
X12121071Y-13384929D01*
X12106786Y-13442071D01*
X12092500Y-13470643D01*
X12078214Y-13484929D01*
X12049643Y-13499214D01*
X12021071Y-13499214D01*
X11992500Y-13484929D01*
X11978214Y-13470643D01*
X11963928Y-13442071D01*
X11949643Y-13384929D01*
X11949643Y-13313500D01*
X11963928Y-13256357D01*
X11978214Y-13227786D01*
X11992500Y-13213500D01*
X12021071Y-13199214D01*
X12249643Y-13470643D02*
X12263928Y-13484929D01*
X12249643Y-13499214D01*
X12235357Y-13484929D01*
X12249643Y-13470643D01*
X12249643Y-13499214D01*
X12435357Y-13327786D02*
X12406786Y-13313500D01*
X12392500Y-13299214D01*
X12378214Y-13270643D01*
X12378214Y-13256357D01*
X12392500Y-13227786D01*
X12406786Y-13213500D01*
X12435357Y-13199214D01*
X12492500Y-13199214D01*
X12521071Y-13213500D01*
X12535357Y-13227786D01*
X12549643Y-13256357D01*
X12549643Y-13270643D01*
X12535357Y-13299214D01*
X12521071Y-13313500D01*
X12492500Y-13327786D01*
X12435357Y-13327786D01*
X12406786Y-13342071D01*
X12392500Y-13356357D01*
X12378214Y-13384929D01*
X12378214Y-13442071D01*
X12392500Y-13470643D01*
X12406786Y-13484929D01*
X12435357Y-13499214D01*
X12492500Y-13499214D01*
X12521071Y-13484929D01*
X12535357Y-13470643D01*
X12549643Y-13442071D01*
X12549643Y-13384929D01*
X12535357Y-13356357D01*
X12521071Y-13342071D01*
X12492500Y-13327786D01*
X12735357Y-13199214D02*
X12763928Y-13199214D01*
X12792500Y-13213500D01*
X12806786Y-13227786D01*
X12821071Y-13256357D01*
X12835357Y-13313500D01*
X12835357Y-13384929D01*
X12821071Y-13442071D01*
X12806786Y-13470643D01*
X12792500Y-13484929D01*
X12763928Y-13499214D01*
X12735357Y-13499214D01*
X12706786Y-13484929D01*
X12692500Y-13470643D01*
X12678214Y-13442071D01*
X12663928Y-13384929D01*
X12663928Y-13313500D01*
X12678214Y-13256357D01*
X12692500Y-13227786D01*
X12706786Y-13213500D01*
X12735357Y-13199214D01*
X12963928Y-13499214D02*
X12963928Y-13299214D01*
X12963928Y-13327786D02*
X12978214Y-13313500D01*
X13006786Y-13299214D01*
X13049643Y-13299214D01*
X13078214Y-13313500D01*
X13092500Y-13342071D01*
X13092500Y-13499214D01*
X13092500Y-13342071D02*
X13106786Y-13313500D01*
X13135357Y-13299214D01*
X13178214Y-13299214D01*
X13206786Y-13313500D01*
X13221071Y-13342071D01*
X13221071Y-13499214D01*
X13363928Y-13499214D02*
X13363928Y-13299214D01*
X13363928Y-13327786D02*
X13378214Y-13313500D01*
X13406786Y-13299214D01*
X13449643Y-13299214D01*
X13478214Y-13313500D01*
X13492500Y-13342071D01*
X13492500Y-13499214D01*
X13492500Y-13342071D02*
X13506786Y-13313500D01*
X13535357Y-13299214D01*
X13578214Y-13299214D01*
X13606786Y-13313500D01*
X13621071Y-13342071D01*
X13621071Y-13499214D01*
X14206786Y-13184929D02*
X13949643Y-13570643D01*
X14592500Y-13199214D02*
X14621071Y-13199214D01*
X14649643Y-13213500D01*
X14663928Y-13227786D01*
X14678214Y-13256357D01*
X14692500Y-13313500D01*
X14692500Y-13384929D01*
X14678214Y-13442071D01*
X14663928Y-13470643D01*
X14649643Y-13484929D01*
X14621071Y-13499214D01*
X14592500Y-13499214D01*
X14563928Y-13484929D01*
X14549643Y-13470643D01*
X14535357Y-13442071D01*
X14521071Y-13384929D01*
X14521071Y-13313500D01*
X14535357Y-13256357D01*
X14549643Y-13227786D01*
X14563928Y-13213500D01*
X14592500Y-13199214D01*
X14821071Y-13470643D02*
X14835357Y-13484929D01*
X14821071Y-13499214D01*
X14806786Y-13484929D01*
X14821071Y-13470643D01*
X14821071Y-13499214D01*
X15021071Y-13199214D02*
X15049643Y-13199214D01*
X15078214Y-13213500D01*
X15092500Y-13227786D01*
X15106785Y-13256357D01*
X15121071Y-13313500D01*
X15121071Y-13384929D01*
X15106785Y-13442071D01*
X15092500Y-13470643D01*
X15078214Y-13484929D01*
X15049643Y-13499214D01*
X15021071Y-13499214D01*
X14992500Y-13484929D01*
X14978214Y-13470643D01*
X14963928Y-13442071D01*
X14949643Y-13384929D01*
X14949643Y-13313500D01*
X14963928Y-13256357D01*
X14978214Y-13227786D01*
X14992500Y-13213500D01*
X15021071Y-13199214D01*
X15221071Y-13199214D02*
X15406785Y-13199214D01*
X15306785Y-13313500D01*
X15349643Y-13313500D01*
X15378214Y-13327786D01*
X15392500Y-13342071D01*
X15406785Y-13370643D01*
X15406785Y-13442071D01*
X15392500Y-13470643D01*
X15378214Y-13484929D01*
X15349643Y-13499214D01*
X15263928Y-13499214D01*
X15235357Y-13484929D01*
X15221071Y-13470643D01*
X15692500Y-13499214D02*
X15521071Y-13499214D01*
X15606785Y-13499214D02*
X15606785Y-13199214D01*
X15578214Y-13242071D01*
X15549643Y-13270643D01*
X15521071Y-13284929D01*
X15806786Y-13199214D02*
X15806786Y-13256357D01*
X15921071Y-13199214D02*
X15921071Y-13256357D01*
X16363928Y-13613500D02*
X16349643Y-13599214D01*
X16321071Y-13556357D01*
X16306785Y-13527786D01*
X16292500Y-13484929D01*
X16278214Y-13413500D01*
X16278214Y-13356357D01*
X16292500Y-13284929D01*
X16306785Y-13242071D01*
X16321071Y-13213500D01*
X16349643Y-13170643D01*
X16363928Y-13156357D01*
X16449643Y-13199214D02*
X16635357Y-13199214D01*
X16535357Y-13313500D01*
X16578214Y-13313500D01*
X16606785Y-13327786D01*
X16621071Y-13342071D01*
X16635357Y-13370643D01*
X16635357Y-13442071D01*
X16621071Y-13470643D01*
X16606785Y-13484929D01*
X16578214Y-13499214D01*
X16492500Y-13499214D01*
X16463928Y-13484929D01*
X16449643Y-13470643D01*
X16735357Y-13199214D02*
X16921071Y-13199214D01*
X16821071Y-13313500D01*
X16863928Y-13313500D01*
X16892500Y-13327786D01*
X16906786Y-13342071D01*
X16921071Y-13370643D01*
X16921071Y-13442071D01*
X16906786Y-13470643D01*
X16892500Y-13484929D01*
X16863928Y-13499214D01*
X16778214Y-13499214D01*
X16749643Y-13484929D01*
X16735357Y-13470643D01*
X17278214Y-13499214D02*
X17278214Y-13199214D01*
X17406786Y-13499214D02*
X17406786Y-13342071D01*
X17392500Y-13313500D01*
X17363928Y-13299214D01*
X17321071Y-13299214D01*
X17292500Y-13313500D01*
X17278214Y-13327786D01*
X17592500Y-13499214D02*
X17563928Y-13484929D01*
X17549643Y-13470643D01*
X17535357Y-13442071D01*
X17535357Y-13356357D01*
X17549643Y-13327786D01*
X17563928Y-13313500D01*
X17592500Y-13299214D01*
X17635357Y-13299214D01*
X17663928Y-13313500D01*
X17678214Y-13327786D01*
X17692500Y-13356357D01*
X17692500Y-13442071D01*
X17678214Y-13470643D01*
X17663928Y-13484929D01*
X17635357Y-13499214D01*
X17592500Y-13499214D01*
X17863928Y-13499214D02*
X17835357Y-13484929D01*
X17821071Y-13456357D01*
X17821071Y-13199214D01*
X18092500Y-13484929D02*
X18063929Y-13499214D01*
X18006786Y-13499214D01*
X17978214Y-13484929D01*
X17963929Y-13456357D01*
X17963929Y-13342071D01*
X17978214Y-13313500D01*
X18006786Y-13299214D01*
X18063929Y-13299214D01*
X18092500Y-13313500D01*
X18106786Y-13342071D01*
X18106786Y-13370643D01*
X17963929Y-13399214D01*
X18221071Y-13484929D02*
X18249643Y-13499214D01*
X18306786Y-13499214D01*
X18335357Y-13484929D01*
X18349643Y-13456357D01*
X18349643Y-13442071D01*
X18335357Y-13413500D01*
X18306786Y-13399214D01*
X18263929Y-13399214D01*
X18235357Y-13384929D01*
X18221071Y-13356357D01*
X18221071Y-13342071D01*
X18235357Y-13313500D01*
X18263929Y-13299214D01*
X18306786Y-13299214D01*
X18335357Y-13313500D01*
X18449643Y-13613500D02*
X18463929Y-13599214D01*
X18492500Y-13556357D01*
X18506786Y-13527786D01*
X18521071Y-13484929D01*
X18535357Y-13413500D01*
X18535357Y-13356357D01*
X18521071Y-13284929D01*
X18506786Y-13242071D01*
X18492500Y-13213500D01*
X18463929Y-13170643D01*
X18449643Y-13156357D01*
X11642462Y-13709462D02*
X11642462Y-13809538D01*
X11592424Y-13759500D02*
X11692500Y-13759500D01*
X12121071Y-13895214D02*
X11949643Y-13895214D01*
X12035357Y-13895214D02*
X12035357Y-13595214D01*
X12006786Y-13638071D01*
X11978214Y-13666643D01*
X11949643Y-13680929D01*
X12249643Y-13866643D02*
X12263928Y-13880929D01*
X12249643Y-13895214D01*
X12235357Y-13880929D01*
X12249643Y-13866643D01*
X12249643Y-13895214D01*
X12449643Y-13595214D02*
X12478214Y-13595214D01*
X12506786Y-13609500D01*
X12521071Y-13623786D01*
X12535357Y-13652357D01*
X12549643Y-13709500D01*
X12549643Y-13780929D01*
X12535357Y-13838071D01*
X12521071Y-13866643D01*
X12506786Y-13880929D01*
X12478214Y-13895214D01*
X12449643Y-13895214D01*
X12421071Y-13880929D01*
X12406786Y-13866643D01*
X12392500Y-13838071D01*
X12378214Y-13780929D01*
X12378214Y-13709500D01*
X12392500Y-13652357D01*
X12406786Y-13623786D01*
X12421071Y-13609500D01*
X12449643Y-13595214D01*
X12735357Y-13595214D02*
X12763928Y-13595214D01*
X12792500Y-13609500D01*
X12806786Y-13623786D01*
X12821071Y-13652357D01*
X12835357Y-13709500D01*
X12835357Y-13780929D01*
X12821071Y-13838071D01*
X12806786Y-13866643D01*
X12792500Y-13880929D01*
X12763928Y-13895214D01*
X12735357Y-13895214D01*
X12706786Y-13880929D01*
X12692500Y-13866643D01*
X12678214Y-13838071D01*
X12663928Y-13780929D01*
X12663928Y-13709500D01*
X12678214Y-13652357D01*
X12692500Y-13623786D01*
X12706786Y-13609500D01*
X12735357Y-13595214D01*
X12963928Y-13895214D02*
X12963928Y-13695214D01*
X12963928Y-13723786D02*
X12978214Y-13709500D01*
X13006786Y-13695214D01*
X13049643Y-13695214D01*
X13078214Y-13709500D01*
X13092500Y-13738071D01*
X13092500Y-13895214D01*
X13092500Y-13738071D02*
X13106786Y-13709500D01*
X13135357Y-13695214D01*
X13178214Y-13695214D01*
X13206786Y-13709500D01*
X13221071Y-13738071D01*
X13221071Y-13895214D01*
X13363928Y-13895214D02*
X13363928Y-13695214D01*
X13363928Y-13723786D02*
X13378214Y-13709500D01*
X13406786Y-13695214D01*
X13449643Y-13695214D01*
X13478214Y-13709500D01*
X13492500Y-13738071D01*
X13492500Y-13895214D01*
X13492500Y-13738071D02*
X13506786Y-13709500D01*
X13535357Y-13695214D01*
X13578214Y-13695214D01*
X13606786Y-13709500D01*
X13621071Y-13738071D01*
X13621071Y-13895214D01*
X14206786Y-13580929D02*
X13949643Y-13966643D01*
X14592500Y-13595214D02*
X14621071Y-13595214D01*
X14649643Y-13609500D01*
X14663928Y-13623786D01*
X14678214Y-13652357D01*
X14692500Y-13709500D01*
X14692500Y-13780929D01*
X14678214Y-13838071D01*
X14663928Y-13866643D01*
X14649643Y-13880929D01*
X14621071Y-13895214D01*
X14592500Y-13895214D01*
X14563928Y-13880929D01*
X14549643Y-13866643D01*
X14535357Y-13838071D01*
X14521071Y-13780929D01*
X14521071Y-13709500D01*
X14535357Y-13652357D01*
X14549643Y-13623786D01*
X14563928Y-13609500D01*
X14592500Y-13595214D01*
X14821071Y-13866643D02*
X14835357Y-13880929D01*
X14821071Y-13895214D01*
X14806786Y-13880929D01*
X14821071Y-13866643D01*
X14821071Y-13895214D01*
X15021071Y-13595214D02*
X15049643Y-13595214D01*
X15078214Y-13609500D01*
X15092500Y-13623786D01*
X15106785Y-13652357D01*
X15121071Y-13709500D01*
X15121071Y-13780929D01*
X15106785Y-13838071D01*
X15092500Y-13866643D01*
X15078214Y-13880929D01*
X15049643Y-13895214D01*
X15021071Y-13895214D01*
X14992500Y-13880929D01*
X14978214Y-13866643D01*
X14963928Y-13838071D01*
X14949643Y-13780929D01*
X14949643Y-13709500D01*
X14963928Y-13652357D01*
X14978214Y-13623786D01*
X14992500Y-13609500D01*
X15021071Y-13595214D01*
X15221071Y-13595214D02*
X15406785Y-13595214D01*
X15306785Y-13709500D01*
X15349643Y-13709500D01*
X15378214Y-13723786D01*
X15392500Y-13738071D01*
X15406785Y-13766643D01*
X15406785Y-13838071D01*
X15392500Y-13866643D01*
X15378214Y-13880929D01*
X15349643Y-13895214D01*
X15263928Y-13895214D01*
X15235357Y-13880929D01*
X15221071Y-13866643D01*
X15549643Y-13895214D02*
X15606785Y-13895214D01*
X15635357Y-13880929D01*
X15649643Y-13866643D01*
X15678214Y-13823786D01*
X15692500Y-13766643D01*
X15692500Y-13652357D01*
X15678214Y-13623786D01*
X15663928Y-13609500D01*
X15635357Y-13595214D01*
X15578214Y-13595214D01*
X15549643Y-13609500D01*
X15535357Y-13623786D01*
X15521071Y-13652357D01*
X15521071Y-13723786D01*
X15535357Y-13752357D01*
X15549643Y-13766643D01*
X15578214Y-13780929D01*
X15635357Y-13780929D01*
X15663928Y-13766643D01*
X15678214Y-13752357D01*
X15692500Y-13723786D01*
X15806786Y-13595214D02*
X15806786Y-13652357D01*
X15921071Y-13595214D02*
X15921071Y-13652357D01*
X16363928Y-14009500D02*
X16349643Y-13995214D01*
X16321071Y-13952357D01*
X16306785Y-13923786D01*
X16292500Y-13880929D01*
X16278214Y-13809500D01*
X16278214Y-13752357D01*
X16292500Y-13680929D01*
X16306785Y-13638071D01*
X16321071Y-13609500D01*
X16349643Y-13566643D01*
X16363928Y-13552357D01*
X16606785Y-13595214D02*
X16549643Y-13595214D01*
X16521071Y-13609500D01*
X16506785Y-13623786D01*
X16478214Y-13666643D01*
X16463928Y-13723786D01*
X16463928Y-13838071D01*
X16478214Y-13866643D01*
X16492500Y-13880929D01*
X16521071Y-13895214D01*
X16578214Y-13895214D01*
X16606785Y-13880929D01*
X16621071Y-13866643D01*
X16635357Y-13838071D01*
X16635357Y-13766643D01*
X16621071Y-13738071D01*
X16606785Y-13723786D01*
X16578214Y-13709500D01*
X16521071Y-13709500D01*
X16492500Y-13723786D01*
X16478214Y-13738071D01*
X16463928Y-13766643D01*
X16992500Y-13895214D02*
X16992500Y-13595214D01*
X17121071Y-13895214D02*
X17121071Y-13738071D01*
X17106786Y-13709500D01*
X17078214Y-13695214D01*
X17035357Y-13695214D01*
X17006786Y-13709500D01*
X16992500Y-13723786D01*
X17306786Y-13895214D02*
X17278214Y-13880929D01*
X17263928Y-13866643D01*
X17249643Y-13838071D01*
X17249643Y-13752357D01*
X17263928Y-13723786D01*
X17278214Y-13709500D01*
X17306786Y-13695214D01*
X17349643Y-13695214D01*
X17378214Y-13709500D01*
X17392500Y-13723786D01*
X17406786Y-13752357D01*
X17406786Y-13838071D01*
X17392500Y-13866643D01*
X17378214Y-13880929D01*
X17349643Y-13895214D01*
X17306786Y-13895214D01*
X17578214Y-13895214D02*
X17549643Y-13880929D01*
X17535357Y-13852357D01*
X17535357Y-13595214D01*
X17806786Y-13880929D02*
X17778214Y-13895214D01*
X17721071Y-13895214D01*
X17692500Y-13880929D01*
X17678214Y-13852357D01*
X17678214Y-13738071D01*
X17692500Y-13709500D01*
X17721071Y-13695214D01*
X17778214Y-13695214D01*
X17806786Y-13709500D01*
X17821071Y-13738071D01*
X17821071Y-13766643D01*
X17678214Y-13795214D01*
X17935357Y-13880929D02*
X17963929Y-13895214D01*
X18021071Y-13895214D01*
X18049643Y-13880929D01*
X18063929Y-13852357D01*
X18063929Y-13838071D01*
X18049643Y-13809500D01*
X18021071Y-13795214D01*
X17978214Y-13795214D01*
X17949643Y-13780929D01*
X17935357Y-13752357D01*
X17935357Y-13738071D01*
X17949643Y-13709500D01*
X17978214Y-13695214D01*
X18021071Y-13695214D01*
X18049643Y-13709500D01*
X18163928Y-14009500D02*
X18178214Y-13995214D01*
X18206786Y-13952357D01*
X18221071Y-13923786D01*
X18235357Y-13880929D01*
X18249643Y-13809500D01*
X18249643Y-13752357D01*
X18235357Y-13680929D01*
X18221071Y-13638071D01*
X18206786Y-13609500D01*
X18178214Y-13566643D01*
X18163928Y-13552357D01*
X11677621Y-14191421D02*
X11677621Y-14119579D01*
X11605778Y-14119579D01*
X11605778Y-14191421D01*
X11677621Y-14191421D01*
X12121071Y-14291214D02*
X11949643Y-14291214D01*
X12035357Y-14291214D02*
X12035357Y-13991214D01*
X12006786Y-14034071D01*
X11978214Y-14062643D01*
X11949643Y-14076929D01*
X12249643Y-14262643D02*
X12263928Y-14276929D01*
X12249643Y-14291214D01*
X12235357Y-14276929D01*
X12249643Y-14262643D01*
X12249643Y-14291214D01*
X12449643Y-13991214D02*
X12478214Y-13991214D01*
X12506786Y-14005500D01*
X12521071Y-14019786D01*
X12535357Y-14048357D01*
X12549643Y-14105500D01*
X12549643Y-14176929D01*
X12535357Y-14234071D01*
X12521071Y-14262643D01*
X12506786Y-14276929D01*
X12478214Y-14291214D01*
X12449643Y-14291214D01*
X12421071Y-14276929D01*
X12406786Y-14262643D01*
X12392500Y-14234071D01*
X12378214Y-14176929D01*
X12378214Y-14105500D01*
X12392500Y-14048357D01*
X12406786Y-14019786D01*
X12421071Y-14005500D01*
X12449643Y-13991214D01*
X12663928Y-14019786D02*
X12678214Y-14005500D01*
X12706786Y-13991214D01*
X12778214Y-13991214D01*
X12806786Y-14005500D01*
X12821071Y-14019786D01*
X12835357Y-14048357D01*
X12835357Y-14076929D01*
X12821071Y-14119786D01*
X12649643Y-14291214D01*
X12835357Y-14291214D01*
X12963928Y-14291214D02*
X12963928Y-14091214D01*
X12963928Y-14119786D02*
X12978214Y-14105500D01*
X13006786Y-14091214D01*
X13049643Y-14091214D01*
X13078214Y-14105500D01*
X13092500Y-14134071D01*
X13092500Y-14291214D01*
X13092500Y-14134071D02*
X13106786Y-14105500D01*
X13135357Y-14091214D01*
X13178214Y-14091214D01*
X13206786Y-14105500D01*
X13221071Y-14134071D01*
X13221071Y-14291214D01*
X13363928Y-14291214D02*
X13363928Y-14091214D01*
X13363928Y-14119786D02*
X13378214Y-14105500D01*
X13406786Y-14091214D01*
X13449643Y-14091214D01*
X13478214Y-14105500D01*
X13492500Y-14134071D01*
X13492500Y-14291214D01*
X13492500Y-14134071D02*
X13506786Y-14105500D01*
X13535357Y-14091214D01*
X13578214Y-14091214D01*
X13606786Y-14105500D01*
X13621071Y-14134071D01*
X13621071Y-14291214D01*
X14206786Y-13976929D02*
X13949643Y-14362643D01*
X14592500Y-13991214D02*
X14621071Y-13991214D01*
X14649643Y-14005500D01*
X14663928Y-14019786D01*
X14678214Y-14048357D01*
X14692500Y-14105500D01*
X14692500Y-14176929D01*
X14678214Y-14234071D01*
X14663928Y-14262643D01*
X14649643Y-14276929D01*
X14621071Y-14291214D01*
X14592500Y-14291214D01*
X14563928Y-14276929D01*
X14549643Y-14262643D01*
X14535357Y-14234071D01*
X14521071Y-14176929D01*
X14521071Y-14105500D01*
X14535357Y-14048357D01*
X14549643Y-14019786D01*
X14563928Y-14005500D01*
X14592500Y-13991214D01*
X14821071Y-14262643D02*
X14835357Y-14276929D01*
X14821071Y-14291214D01*
X14806786Y-14276929D01*
X14821071Y-14262643D01*
X14821071Y-14291214D01*
X15021071Y-13991214D02*
X15049643Y-13991214D01*
X15078214Y-14005500D01*
X15092500Y-14019786D01*
X15106785Y-14048357D01*
X15121071Y-14105500D01*
X15121071Y-14176929D01*
X15106785Y-14234071D01*
X15092500Y-14262643D01*
X15078214Y-14276929D01*
X15049643Y-14291214D01*
X15021071Y-14291214D01*
X14992500Y-14276929D01*
X14978214Y-14262643D01*
X14963928Y-14234071D01*
X14949643Y-14176929D01*
X14949643Y-14105500D01*
X14963928Y-14048357D01*
X14978214Y-14019786D01*
X14992500Y-14005500D01*
X15021071Y-13991214D01*
X15378214Y-14091214D02*
X15378214Y-14291214D01*
X15306785Y-13976929D02*
X15235357Y-14191214D01*
X15421071Y-14191214D01*
X15592500Y-13991214D02*
X15621071Y-13991214D01*
X15649643Y-14005500D01*
X15663928Y-14019786D01*
X15678214Y-14048357D01*
X15692500Y-14105500D01*
X15692500Y-14176929D01*
X15678214Y-14234071D01*
X15663928Y-14262643D01*
X15649643Y-14276929D01*
X15621071Y-14291214D01*
X15592500Y-14291214D01*
X15563928Y-14276929D01*
X15549643Y-14262643D01*
X15535357Y-14234071D01*
X15521071Y-14176929D01*
X15521071Y-14105500D01*
X15535357Y-14048357D01*
X15549643Y-14019786D01*
X15563928Y-14005500D01*
X15592500Y-13991214D01*
X15806786Y-13991214D02*
X15806786Y-14048357D01*
X15921071Y-13991214D02*
X15921071Y-14048357D01*
X16363928Y-14405500D02*
X16349643Y-14391214D01*
X16321071Y-14348357D01*
X16306785Y-14319786D01*
X16292500Y-14276929D01*
X16278214Y-14205500D01*
X16278214Y-14148357D01*
X16292500Y-14076929D01*
X16306785Y-14034071D01*
X16321071Y-14005500D01*
X16349643Y-13962643D01*
X16363928Y-13948357D01*
X16606785Y-13991214D02*
X16549643Y-13991214D01*
X16521071Y-14005500D01*
X16506785Y-14019786D01*
X16478214Y-14062643D01*
X16463928Y-14119786D01*
X16463928Y-14234071D01*
X16478214Y-14262643D01*
X16492500Y-14276929D01*
X16521071Y-14291214D01*
X16578214Y-14291214D01*
X16606785Y-14276929D01*
X16621071Y-14262643D01*
X16635357Y-14234071D01*
X16635357Y-14162643D01*
X16621071Y-14134071D01*
X16606785Y-14119786D01*
X16578214Y-14105500D01*
X16521071Y-14105500D01*
X16492500Y-14119786D01*
X16478214Y-14134071D01*
X16463928Y-14162643D01*
X16992500Y-14291214D02*
X16992500Y-13991214D01*
X17121071Y-14291214D02*
X17121071Y-14134071D01*
X17106786Y-14105500D01*
X17078214Y-14091214D01*
X17035357Y-14091214D01*
X17006786Y-14105500D01*
X16992500Y-14119786D01*
X17306786Y-14291214D02*
X17278214Y-14276929D01*
X17263928Y-14262643D01*
X17249643Y-14234071D01*
X17249643Y-14148357D01*
X17263928Y-14119786D01*
X17278214Y-14105500D01*
X17306786Y-14091214D01*
X17349643Y-14091214D01*
X17378214Y-14105500D01*
X17392500Y-14119786D01*
X17406786Y-14148357D01*
X17406786Y-14234071D01*
X17392500Y-14262643D01*
X17378214Y-14276929D01*
X17349643Y-14291214D01*
X17306786Y-14291214D01*
X17578214Y-14291214D02*
X17549643Y-14276929D01*
X17535357Y-14248357D01*
X17535357Y-13991214D01*
X17806786Y-14276929D02*
X17778214Y-14291214D01*
X17721071Y-14291214D01*
X17692500Y-14276929D01*
X17678214Y-14248357D01*
X17678214Y-14134071D01*
X17692500Y-14105500D01*
X17721071Y-14091214D01*
X17778214Y-14091214D01*
X17806786Y-14105500D01*
X17821071Y-14134071D01*
X17821071Y-14162643D01*
X17678214Y-14191214D01*
X17935357Y-14276929D02*
X17963929Y-14291214D01*
X18021071Y-14291214D01*
X18049643Y-14276929D01*
X18063929Y-14248357D01*
X18063929Y-14234071D01*
X18049643Y-14205500D01*
X18021071Y-14191214D01*
X17978214Y-14191214D01*
X17949643Y-14176929D01*
X17935357Y-14148357D01*
X17935357Y-14134071D01*
X17949643Y-14105500D01*
X17978214Y-14091214D01*
X18021071Y-14091214D01*
X18049643Y-14105500D01*
X18163928Y-14405500D02*
X18178214Y-14391214D01*
X18206786Y-14348357D01*
X18221071Y-14319786D01*
X18235357Y-14276929D01*
X18249643Y-14205500D01*
X18249643Y-14148357D01*
X18235357Y-14076929D01*
X18221071Y-14034071D01*
X18206786Y-14005500D01*
X18178214Y-13962643D01*
X18163928Y-13948357D01*
X11627500Y-14616500D02*
X11692500Y-14551500D01*
X11627500Y-14486500D01*
X11562500Y-14551500D01*
X11627500Y-14616500D01*
X12121071Y-14687214D02*
X11949643Y-14687214D01*
X12035357Y-14687214D02*
X12035357Y-14387214D01*
X12006786Y-14430071D01*
X11978214Y-14458643D01*
X11949643Y-14472929D01*
X12249643Y-14658643D02*
X12263928Y-14672929D01*
X12249643Y-14687214D01*
X12235357Y-14672929D01*
X12249643Y-14658643D01*
X12249643Y-14687214D01*
X12363928Y-14387214D02*
X12549643Y-14387214D01*
X12449643Y-14501500D01*
X12492500Y-14501500D01*
X12521071Y-14515786D01*
X12535357Y-14530071D01*
X12549643Y-14558643D01*
X12549643Y-14630071D01*
X12535357Y-14658643D01*
X12521071Y-14672929D01*
X12492500Y-14687214D01*
X12406786Y-14687214D01*
X12378214Y-14672929D01*
X12363928Y-14658643D01*
X12735357Y-14387214D02*
X12763928Y-14387214D01*
X12792500Y-14401500D01*
X12806786Y-14415786D01*
X12821071Y-14444357D01*
X12835357Y-14501500D01*
X12835357Y-14572929D01*
X12821071Y-14630071D01*
X12806786Y-14658643D01*
X12792500Y-14672929D01*
X12763928Y-14687214D01*
X12735357Y-14687214D01*
X12706786Y-14672929D01*
X12692500Y-14658643D01*
X12678214Y-14630071D01*
X12663928Y-14572929D01*
X12663928Y-14501500D01*
X12678214Y-14444357D01*
X12692500Y-14415786D01*
X12706786Y-14401500D01*
X12735357Y-14387214D01*
X12963928Y-14687214D02*
X12963928Y-14487214D01*
X12963928Y-14515786D02*
X12978214Y-14501500D01*
X13006786Y-14487214D01*
X13049643Y-14487214D01*
X13078214Y-14501500D01*
X13092500Y-14530071D01*
X13092500Y-14687214D01*
X13092500Y-14530071D02*
X13106786Y-14501500D01*
X13135357Y-14487214D01*
X13178214Y-14487214D01*
X13206786Y-14501500D01*
X13221071Y-14530071D01*
X13221071Y-14687214D01*
X13363928Y-14687214D02*
X13363928Y-14487214D01*
X13363928Y-14515786D02*
X13378214Y-14501500D01*
X13406786Y-14487214D01*
X13449643Y-14487214D01*
X13478214Y-14501500D01*
X13492500Y-14530071D01*
X13492500Y-14687214D01*
X13492500Y-14530071D02*
X13506786Y-14501500D01*
X13535357Y-14487214D01*
X13578214Y-14487214D01*
X13606786Y-14501500D01*
X13621071Y-14530071D01*
X13621071Y-14687214D01*
X14206786Y-14372929D02*
X13949643Y-14758643D01*
X14592500Y-14387214D02*
X14621071Y-14387214D01*
X14649643Y-14401500D01*
X14663928Y-14415786D01*
X14678214Y-14444357D01*
X14692500Y-14501500D01*
X14692500Y-14572929D01*
X14678214Y-14630071D01*
X14663928Y-14658643D01*
X14649643Y-14672929D01*
X14621071Y-14687214D01*
X14592500Y-14687214D01*
X14563928Y-14672929D01*
X14549643Y-14658643D01*
X14535357Y-14630071D01*
X14521071Y-14572929D01*
X14521071Y-14501500D01*
X14535357Y-14444357D01*
X14549643Y-14415786D01*
X14563928Y-14401500D01*
X14592500Y-14387214D01*
X14821071Y-14658643D02*
X14835357Y-14672929D01*
X14821071Y-14687214D01*
X14806786Y-14672929D01*
X14821071Y-14658643D01*
X14821071Y-14687214D01*
X15021071Y-14387214D02*
X15049643Y-14387214D01*
X15078214Y-14401500D01*
X15092500Y-14415786D01*
X15106785Y-14444357D01*
X15121071Y-14501500D01*
X15121071Y-14572929D01*
X15106785Y-14630071D01*
X15092500Y-14658643D01*
X15078214Y-14672929D01*
X15049643Y-14687214D01*
X15021071Y-14687214D01*
X14992500Y-14672929D01*
X14978214Y-14658643D01*
X14963928Y-14630071D01*
X14949643Y-14572929D01*
X14949643Y-14501500D01*
X14963928Y-14444357D01*
X14978214Y-14415786D01*
X14992500Y-14401500D01*
X15021071Y-14387214D01*
X15392500Y-14387214D02*
X15249643Y-14387214D01*
X15235357Y-14530071D01*
X15249643Y-14515786D01*
X15278214Y-14501500D01*
X15349643Y-14501500D01*
X15378214Y-14515786D01*
X15392500Y-14530071D01*
X15406785Y-14558643D01*
X15406785Y-14630071D01*
X15392500Y-14658643D01*
X15378214Y-14672929D01*
X15349643Y-14687214D01*
X15278214Y-14687214D01*
X15249643Y-14672929D01*
X15235357Y-14658643D01*
X15692500Y-14687214D02*
X15521071Y-14687214D01*
X15606785Y-14687214D02*
X15606785Y-14387214D01*
X15578214Y-14430071D01*
X15549643Y-14458643D01*
X15521071Y-14472929D01*
X15806786Y-14387214D02*
X15806786Y-14444357D01*
X15921071Y-14387214D02*
X15921071Y-14444357D01*
X16363928Y-14801500D02*
X16349643Y-14787214D01*
X16321071Y-14744357D01*
X16306785Y-14715786D01*
X16292500Y-14672929D01*
X16278214Y-14601500D01*
X16278214Y-14544357D01*
X16292500Y-14472929D01*
X16306785Y-14430071D01*
X16321071Y-14401500D01*
X16349643Y-14358643D01*
X16363928Y-14344357D01*
X16521071Y-14515786D02*
X16492500Y-14501500D01*
X16478214Y-14487214D01*
X16463928Y-14458643D01*
X16463928Y-14444357D01*
X16478214Y-14415786D01*
X16492500Y-14401500D01*
X16521071Y-14387214D01*
X16578214Y-14387214D01*
X16606785Y-14401500D01*
X16621071Y-14415786D01*
X16635357Y-14444357D01*
X16635357Y-14458643D01*
X16621071Y-14487214D01*
X16606785Y-14501500D01*
X16578214Y-14515786D01*
X16521071Y-14515786D01*
X16492500Y-14530071D01*
X16478214Y-14544357D01*
X16463928Y-14572929D01*
X16463928Y-14630071D01*
X16478214Y-14658643D01*
X16492500Y-14672929D01*
X16521071Y-14687214D01*
X16578214Y-14687214D01*
X16606785Y-14672929D01*
X16621071Y-14658643D01*
X16635357Y-14630071D01*
X16635357Y-14572929D01*
X16621071Y-14544357D01*
X16606785Y-14530071D01*
X16578214Y-14515786D01*
X16992500Y-14687214D02*
X16992500Y-14387214D01*
X17121071Y-14687214D02*
X17121071Y-14530071D01*
X17106786Y-14501500D01*
X17078214Y-14487214D01*
X17035357Y-14487214D01*
X17006786Y-14501500D01*
X16992500Y-14515786D01*
X17306786Y-14687214D02*
X17278214Y-14672929D01*
X17263928Y-14658643D01*
X17249643Y-14630071D01*
X17249643Y-14544357D01*
X17263928Y-14515786D01*
X17278214Y-14501500D01*
X17306786Y-14487214D01*
X17349643Y-14487214D01*
X17378214Y-14501500D01*
X17392500Y-14515786D01*
X17406786Y-14544357D01*
X17406786Y-14630071D01*
X17392500Y-14658643D01*
X17378214Y-14672929D01*
X17349643Y-14687214D01*
X17306786Y-14687214D01*
X17578214Y-14687214D02*
X17549643Y-14672929D01*
X17535357Y-14644357D01*
X17535357Y-14387214D01*
X17806786Y-14672929D02*
X17778214Y-14687214D01*
X17721071Y-14687214D01*
X17692500Y-14672929D01*
X17678214Y-14644357D01*
X17678214Y-14530071D01*
X17692500Y-14501500D01*
X17721071Y-14487214D01*
X17778214Y-14487214D01*
X17806786Y-14501500D01*
X17821071Y-14530071D01*
X17821071Y-14558643D01*
X17678214Y-14587214D01*
X17935357Y-14672929D02*
X17963929Y-14687214D01*
X18021071Y-14687214D01*
X18049643Y-14672929D01*
X18063929Y-14644357D01*
X18063929Y-14630071D01*
X18049643Y-14601500D01*
X18021071Y-14587214D01*
X17978214Y-14587214D01*
X17949643Y-14572929D01*
X17935357Y-14544357D01*
X17935357Y-14530071D01*
X17949643Y-14501500D01*
X17978214Y-14487214D01*
X18021071Y-14487214D01*
X18049643Y-14501500D01*
X18163928Y-14801500D02*
X18178214Y-14787214D01*
X18206786Y-14744357D01*
X18221071Y-14715786D01*
X18235357Y-14672929D01*
X18249643Y-14601500D01*
X18249643Y-14544357D01*
X18235357Y-14472929D01*
X18221071Y-14430071D01*
X18206786Y-14401500D01*
X18178214Y-14358643D01*
X18163928Y-14344357D01*
M02*
