G04 #@! TF.FileFunction,Copper,L1,Top,Signal*
%FSLAX46Y46*%
G04 Gerber Fmt 4.6, Leading zero omitted, Abs format (unit mm)*
G04 Created by KiCad (PCBNEW 4.0.2-stable) date 3/20/2016 1:32:16 PM*
%MOMM*%
G01*
G04 APERTURE LIST*
%ADD10C,0.100000*%
%ADD11C,0.381000*%
%ADD12R,1.400000X1.400000*%
%ADD13C,1.400000*%
%ADD14R,2.500000X2.500000*%
%ADD15C,2.500000*%
%ADD16R,1.727200X2.032000*%
%ADD17O,1.727200X2.032000*%
%ADD18C,1.998980*%
%ADD19O,1.600000X2.300000*%
%ADD20C,1.000000*%
%ADD21C,0.600000*%
%ADD22C,1.000000*%
%ADD23C,0.750000*%
%ADD24C,0.254000*%
G04 APERTURE END LIST*
D10*
D11*
X121826000Y-93167440D02*
X121226560Y-94767640D01*
X121925060Y-93269040D02*
X122326380Y-94767640D01*
X121427220Y-92867720D02*
X122224780Y-92867720D01*
X122425440Y-92568000D02*
X121427220Y-92568000D01*
X121427220Y-92268280D02*
X122224780Y-92268280D01*
X117825500Y-94767640D02*
X119827020Y-94767640D01*
X119524760Y-94467920D02*
X117927100Y-94467920D01*
X117825500Y-94168200D02*
X119326640Y-94168200D01*
X119425700Y-93868480D02*
X117825500Y-93868480D01*
X117927100Y-93568760D02*
X119326640Y-93568760D01*
X119026920Y-93269040D02*
X117927100Y-93269040D01*
X117825500Y-92966780D02*
X118826260Y-92966780D01*
X118826260Y-92667060D02*
X117825500Y-92667060D01*
X117927100Y-92367340D02*
X118826260Y-92367340D01*
X118925320Y-92067620D02*
X117927100Y-92067620D01*
X117825500Y-91767900D02*
X119326640Y-91767900D01*
X119425700Y-91468180D02*
X117927100Y-91468180D01*
X117825500Y-91369120D02*
X119225040Y-91369120D01*
X119326640Y-91066860D02*
X117927100Y-91066860D01*
X117927100Y-90767140D02*
X119326640Y-90767140D01*
X119827020Y-90467420D02*
X118026160Y-90467420D01*
X117927100Y-90167700D02*
X120926840Y-90167700D01*
X121124960Y-89867980D02*
X117927100Y-89867980D01*
X122626100Y-89867980D02*
X125724900Y-89867980D01*
X125826500Y-90068640D02*
X122725160Y-90068640D01*
X123824980Y-90368360D02*
X125724900Y-90368360D01*
X125826500Y-90569020D02*
X124127240Y-90569020D01*
X124325360Y-90868740D02*
X125724900Y-90868740D01*
X125724900Y-91168460D02*
X124426960Y-91168460D01*
X124127240Y-91468180D02*
X125826500Y-91468180D01*
X125826500Y-91767900D02*
X124226300Y-91767900D01*
X124726680Y-92067620D02*
X125826500Y-92067620D01*
X125826500Y-92367340D02*
X124825740Y-92367340D01*
X124726680Y-92667060D02*
X125826500Y-92667060D01*
X125826500Y-92966780D02*
X124726680Y-92966780D01*
X124625080Y-93269040D02*
X125724900Y-93269040D01*
X125826500Y-93568760D02*
X124127240Y-93568760D01*
X124226300Y-93868480D02*
X125724900Y-93868480D01*
X124226300Y-94168200D02*
X125625840Y-94168200D01*
X125724900Y-94467920D02*
X124226300Y-94467920D01*
X123926580Y-94767640D02*
X125625840Y-94767640D01*
X121826000Y-94168200D02*
X122026660Y-94869240D01*
X121826000Y-94069140D02*
X121625340Y-94869240D01*
X125526780Y-95067360D02*
X125625840Y-97368600D01*
X118026160Y-95067360D02*
X118026160Y-97368600D01*
X118325880Y-95067360D02*
X118325880Y-97569260D01*
X125326120Y-95067360D02*
X125326120Y-97569260D01*
X117825500Y-95067360D02*
X125826500Y-95067360D01*
X121846320Y-93248720D02*
X121815840Y-93538280D01*
X121815840Y-93538280D02*
X122384800Y-94907340D01*
X122384800Y-94907340D02*
X122826760Y-94757480D01*
X122826760Y-94757480D02*
X122864860Y-94709220D01*
X122864860Y-94709220D02*
X123256020Y-94978460D01*
X123245860Y-94937820D02*
X123446520Y-94907340D01*
X123456680Y-94947980D02*
X124134860Y-94307900D01*
X124134860Y-94307900D02*
X124226300Y-94076760D01*
X124226300Y-94076760D02*
X123957060Y-93599240D01*
X123957060Y-93599240D02*
X123985000Y-93446840D01*
X123985000Y-93446840D02*
X124665720Y-93258880D01*
X124665720Y-93258880D02*
X124726680Y-92077780D01*
X124726680Y-92077780D02*
X124056120Y-91828860D01*
X124056120Y-91828860D02*
X123985000Y-91628200D01*
X123985000Y-91628200D02*
X124256780Y-91097340D01*
X124256780Y-91097340D02*
X124134860Y-90787460D01*
X124134860Y-90787460D02*
X123494780Y-90177860D01*
X123494780Y-90177860D02*
X123286500Y-90167700D01*
X123286500Y-90167700D02*
X122864860Y-90426780D01*
X122864860Y-90426780D02*
X122687060Y-90348040D01*
X122687060Y-90348040D02*
X122466080Y-89789240D01*
X122466080Y-89789240D02*
X122445760Y-89718120D01*
X122445760Y-89718120D02*
X121274820Y-89697800D01*
X121284980Y-89657160D02*
X121036060Y-90327720D01*
X121036060Y-90327720D02*
X120916680Y-90398840D01*
X120916680Y-90398840D02*
X120215640Y-90099120D01*
X120215640Y-90099120D02*
X119364740Y-90998280D01*
X119364740Y-90998280D02*
X119636520Y-91628200D01*
X119636520Y-91628200D02*
X119595880Y-91757740D01*
X119595880Y-91757740D02*
X119075180Y-91839020D01*
X119075180Y-91839020D02*
X118925320Y-91897440D01*
X118925320Y-91897440D02*
X118955800Y-93157280D01*
X118955800Y-93157280D02*
X119595880Y-93388420D01*
X119595880Y-93388420D02*
X119626360Y-93487480D01*
X119626360Y-93487480D02*
X119326640Y-94097080D01*
X119326640Y-94097080D02*
X120147060Y-94937820D01*
X120147060Y-94937820D02*
X120256280Y-95029260D01*
X120256280Y-95029260D02*
X120845560Y-94737160D01*
X120845560Y-94737160D02*
X121107180Y-94876860D01*
X121107180Y-94876860D02*
X121335780Y-94876860D01*
X121335780Y-94876860D02*
X121876800Y-93368100D01*
X121876800Y-93368100D02*
X121635500Y-93058220D01*
X121635500Y-93058220D02*
X121556760Y-93068380D01*
X121556760Y-93068380D02*
X121345940Y-92928680D01*
X121345940Y-92928680D02*
X121206240Y-92728020D01*
X121206240Y-92728020D02*
X121246880Y-92288600D01*
X121246880Y-92288600D02*
X121526280Y-91999040D01*
X121526280Y-91999040D02*
X121886960Y-91927920D01*
X121886960Y-91927920D02*
X122224780Y-92047300D01*
X122224780Y-92047300D02*
X122455920Y-92347020D01*
X122455920Y-92347020D02*
X122445760Y-92748340D01*
X122445760Y-92748340D02*
X122336540Y-92938840D01*
X122336540Y-92938840D02*
X121826000Y-93248720D01*
X117825500Y-89568260D02*
X125826500Y-89568260D01*
X125826500Y-89568260D02*
X125826500Y-97569260D01*
X125826500Y-97569260D02*
X117825500Y-97569260D01*
X117825500Y-97569260D02*
X117825500Y-89568260D01*
X123543040Y-95649020D02*
X123903720Y-97119680D01*
X123903720Y-97119680D02*
X124183120Y-96057960D01*
X124183120Y-96057960D02*
X124493000Y-97129840D01*
X124493000Y-97129840D02*
X124833360Y-95679500D01*
X122123180Y-96339900D02*
X122913120Y-96329740D01*
X122913120Y-96329740D02*
X122923280Y-96339900D01*
X122923280Y-96339900D02*
X122923280Y-96329740D01*
X122963920Y-95618540D02*
X122963920Y-97160320D01*
X122074920Y-95608380D02*
X122074920Y-97178100D01*
X122074920Y-97178100D02*
X122085080Y-97167940D01*
X121523740Y-95709980D02*
X121173220Y-95628700D01*
X121173220Y-95628700D02*
X120853180Y-95618540D01*
X120853180Y-95618540D02*
X120614420Y-95819200D01*
X120614420Y-95819200D02*
X120583940Y-96088440D01*
X120583940Y-96088440D02*
X120825240Y-96329740D01*
X120825240Y-96329740D02*
X121213860Y-96459280D01*
X121213860Y-96459280D02*
X121394200Y-96619300D01*
X121394200Y-96619300D02*
X121434840Y-96919020D01*
X121434840Y-96919020D02*
X121203700Y-97140000D01*
X121203700Y-97140000D02*
X120883660Y-97167940D01*
X120883660Y-97167940D02*
X120533140Y-97058720D01*
X119494280Y-95608380D02*
X119245360Y-95628700D01*
X119245360Y-95628700D02*
X119004060Y-95870000D01*
X119004060Y-95870000D02*
X118915160Y-96360220D01*
X118915160Y-96360220D02*
X118943100Y-96708200D01*
X118943100Y-96708200D02*
X119143760Y-97028240D01*
X119143760Y-97028240D02*
X119395220Y-97150160D01*
X119395220Y-97150160D02*
X119705100Y-97079040D01*
X119705100Y-97079040D02*
X119923540Y-96898700D01*
X119923540Y-96898700D02*
X119994660Y-96438960D01*
X119994660Y-96438960D02*
X119943860Y-96030020D01*
X119943860Y-96030020D02*
X119834640Y-95748080D01*
X119834640Y-95748080D02*
X119473960Y-95618540D01*
D12*
X152306000Y-92568000D03*
D13*
X152306000Y-102568000D03*
D12*
X163482000Y-92568000D03*
D13*
X163482000Y-102568000D03*
D12*
X139606000Y-92568000D03*
D13*
X139606000Y-102568000D03*
D14*
X127414000Y-74788000D03*
D15*
X122414000Y-74788000D03*
D14*
X138082000Y-74788000D03*
D15*
X133082000Y-74788000D03*
D14*
X148750000Y-74788000D03*
D15*
X143750000Y-74788000D03*
D14*
X159418000Y-74788000D03*
D15*
X154418000Y-74788000D03*
D16*
X119540000Y-116190000D03*
D17*
X122080000Y-116190000D03*
X124620000Y-116190000D03*
X127160000Y-116190000D03*
X129700000Y-116190000D03*
X132240000Y-116190000D03*
D18*
X137574000Y-88250000D03*
X152574000Y-88250000D03*
X150528000Y-84948000D03*
X165528000Y-84948000D03*
X125001000Y-85075000D03*
X140001000Y-85075000D03*
D19*
X147607000Y-114031000D03*
X150147000Y-114031000D03*
X152687000Y-114031000D03*
X152687000Y-106411000D03*
X150147000Y-106411000D03*
X147607000Y-106411000D03*
X136812000Y-114031000D03*
X139352000Y-114031000D03*
X141892000Y-114031000D03*
X141892000Y-106411000D03*
X139352000Y-106411000D03*
X136812000Y-106411000D03*
X158656000Y-114158000D03*
X161196000Y-114158000D03*
X163736000Y-114158000D03*
X163736000Y-106538000D03*
X161196000Y-106538000D03*
X158656000Y-106538000D03*
D20*
X159672000Y-96124000D03*
X157640000Y-96124000D03*
X155354000Y-96124000D03*
X147480000Y-96124000D03*
X145448000Y-96124000D03*
X143162000Y-96124000D03*
X133510000Y-96124000D03*
X131224000Y-96124000D03*
X128684000Y-96124000D03*
D21*
X156116000Y-117968000D03*
X152814000Y-116444000D03*
X143924000Y-115936000D03*
D22*
X152574000Y-88250000D02*
X152574000Y-89760000D01*
X152306000Y-90028000D02*
X152306000Y-92568000D01*
X152574000Y-89760000D02*
X152306000Y-90028000D01*
D23*
X152052000Y-92314000D02*
X152306000Y-92568000D01*
D22*
X163482000Y-92568000D02*
X163482000Y-89774000D01*
X165528000Y-87728000D02*
X165528000Y-84948000D01*
X163482000Y-89774000D02*
X165528000Y-87728000D01*
X140001000Y-85075000D02*
X140001000Y-88363000D01*
X139606000Y-88758000D02*
X139606000Y-92568000D01*
X140001000Y-88363000D02*
X139606000Y-88758000D01*
D24*
G36*
X135486233Y-113096879D02*
X135377000Y-113646030D01*
X135377000Y-114415970D01*
X135486233Y-114965121D01*
X135797302Y-115430668D01*
X136262849Y-115741737D01*
X136812000Y-115850970D01*
X137361151Y-115741737D01*
X137826698Y-115430668D01*
X138082000Y-115048582D01*
X138337302Y-115430668D01*
X138802849Y-115741737D01*
X139352000Y-115850970D01*
X139901151Y-115741737D01*
X140366698Y-115430668D01*
X140622000Y-115048582D01*
X140877302Y-115430668D01*
X141342849Y-115741737D01*
X141892000Y-115850970D01*
X142441151Y-115741737D01*
X142906698Y-115430668D01*
X143217767Y-114965121D01*
X143327000Y-114415970D01*
X143327000Y-113646030D01*
X143217767Y-113096879D01*
X142993340Y-112761000D01*
X146505660Y-112761000D01*
X146281233Y-113096879D01*
X146172000Y-113646030D01*
X146172000Y-114415970D01*
X146281233Y-114965121D01*
X146592302Y-115430668D01*
X147057849Y-115741737D01*
X147607000Y-115850970D01*
X148156151Y-115741737D01*
X148621698Y-115430668D01*
X148877000Y-115048582D01*
X149132302Y-115430668D01*
X149597849Y-115741737D01*
X150147000Y-115850970D01*
X150696151Y-115741737D01*
X151161698Y-115430668D01*
X151417000Y-115048582D01*
X151672302Y-115430668D01*
X152137849Y-115741737D01*
X152687000Y-115850970D01*
X153236151Y-115741737D01*
X153701698Y-115430668D01*
X154012767Y-114965121D01*
X154122000Y-114415970D01*
X154122000Y-113646030D01*
X154012767Y-113096879D01*
X153788340Y-112761000D01*
X157639519Y-112761000D01*
X157330233Y-113223879D01*
X157221000Y-113773030D01*
X157221000Y-114542970D01*
X157330233Y-115092121D01*
X157641302Y-115557668D01*
X158106849Y-115868737D01*
X158656000Y-115977970D01*
X159205151Y-115868737D01*
X159670698Y-115557668D01*
X159926000Y-115175582D01*
X160181302Y-115557668D01*
X160646849Y-115868737D01*
X161196000Y-115977970D01*
X161745151Y-115868737D01*
X162210698Y-115557668D01*
X162466000Y-115175582D01*
X162721302Y-115557668D01*
X163186849Y-115868737D01*
X163736000Y-115977970D01*
X164285151Y-115868737D01*
X164750698Y-115557668D01*
X165061767Y-115092121D01*
X165171000Y-114542970D01*
X165171000Y-113773030D01*
X165061767Y-113223879D01*
X164752481Y-112761000D01*
X166290000Y-112761000D01*
X166290000Y-119290000D01*
X117710000Y-119290000D01*
X117710000Y-116475750D01*
X118041400Y-116475750D01*
X118041400Y-117332309D01*
X118138073Y-117565698D01*
X118316701Y-117744327D01*
X118550090Y-117841000D01*
X119254250Y-117841000D01*
X119413000Y-117682250D01*
X119413000Y-116317000D01*
X118200150Y-116317000D01*
X118041400Y-116475750D01*
X117710000Y-116475750D01*
X117710000Y-115047691D01*
X118041400Y-115047691D01*
X118041400Y-115904250D01*
X118200150Y-116063000D01*
X119413000Y-116063000D01*
X119413000Y-114697750D01*
X119667000Y-114697750D01*
X119667000Y-116063000D01*
X119687000Y-116063000D01*
X119687000Y-116317000D01*
X119667000Y-116317000D01*
X119667000Y-117682250D01*
X119825750Y-117841000D01*
X120529910Y-117841000D01*
X120763299Y-117744327D01*
X120941927Y-117565698D01*
X121005500Y-117412220D01*
X121020330Y-117434415D01*
X121506511Y-117759271D01*
X122080000Y-117873345D01*
X122653489Y-117759271D01*
X123139670Y-117434415D01*
X123350000Y-117119634D01*
X123560330Y-117434415D01*
X124046511Y-117759271D01*
X124620000Y-117873345D01*
X125193489Y-117759271D01*
X125679670Y-117434415D01*
X125890000Y-117119634D01*
X126100330Y-117434415D01*
X126586511Y-117759271D01*
X127160000Y-117873345D01*
X127733489Y-117759271D01*
X128219670Y-117434415D01*
X128430000Y-117119634D01*
X128640330Y-117434415D01*
X129126511Y-117759271D01*
X129700000Y-117873345D01*
X130273489Y-117759271D01*
X130759670Y-117434415D01*
X130970000Y-117119634D01*
X131180330Y-117434415D01*
X131666511Y-117759271D01*
X132240000Y-117873345D01*
X132813489Y-117759271D01*
X133299670Y-117434415D01*
X133624526Y-116948234D01*
X133738600Y-116374745D01*
X133738600Y-116005255D01*
X133624526Y-115431766D01*
X133299670Y-114945585D01*
X132813489Y-114620729D01*
X132240000Y-114506655D01*
X131666511Y-114620729D01*
X131180330Y-114945585D01*
X130970000Y-115260366D01*
X130759670Y-114945585D01*
X130273489Y-114620729D01*
X129700000Y-114506655D01*
X129126511Y-114620729D01*
X128640330Y-114945585D01*
X128430000Y-115260366D01*
X128219670Y-114945585D01*
X127733489Y-114620729D01*
X127160000Y-114506655D01*
X126586511Y-114620729D01*
X126100330Y-114945585D01*
X125890000Y-115260366D01*
X125679670Y-114945585D01*
X125193489Y-114620729D01*
X124620000Y-114506655D01*
X124046511Y-114620729D01*
X123560330Y-114945585D01*
X123350000Y-115260366D01*
X123139670Y-114945585D01*
X122653489Y-114620729D01*
X122080000Y-114506655D01*
X121506511Y-114620729D01*
X121020330Y-114945585D01*
X121005500Y-114967780D01*
X120941927Y-114814302D01*
X120763299Y-114635673D01*
X120529910Y-114539000D01*
X119825750Y-114539000D01*
X119667000Y-114697750D01*
X119413000Y-114697750D01*
X119254250Y-114539000D01*
X118550090Y-114539000D01*
X118316701Y-114635673D01*
X118138073Y-114814302D01*
X118041400Y-115047691D01*
X117710000Y-115047691D01*
X117710000Y-112761000D01*
X135710660Y-112761000D01*
X135486233Y-113096879D01*
X135486233Y-113096879D01*
G37*
X135486233Y-113096879D02*
X135377000Y-113646030D01*
X135377000Y-114415970D01*
X135486233Y-114965121D01*
X135797302Y-115430668D01*
X136262849Y-115741737D01*
X136812000Y-115850970D01*
X137361151Y-115741737D01*
X137826698Y-115430668D01*
X138082000Y-115048582D01*
X138337302Y-115430668D01*
X138802849Y-115741737D01*
X139352000Y-115850970D01*
X139901151Y-115741737D01*
X140366698Y-115430668D01*
X140622000Y-115048582D01*
X140877302Y-115430668D01*
X141342849Y-115741737D01*
X141892000Y-115850970D01*
X142441151Y-115741737D01*
X142906698Y-115430668D01*
X143217767Y-114965121D01*
X143327000Y-114415970D01*
X143327000Y-113646030D01*
X143217767Y-113096879D01*
X142993340Y-112761000D01*
X146505660Y-112761000D01*
X146281233Y-113096879D01*
X146172000Y-113646030D01*
X146172000Y-114415970D01*
X146281233Y-114965121D01*
X146592302Y-115430668D01*
X147057849Y-115741737D01*
X147607000Y-115850970D01*
X148156151Y-115741737D01*
X148621698Y-115430668D01*
X148877000Y-115048582D01*
X149132302Y-115430668D01*
X149597849Y-115741737D01*
X150147000Y-115850970D01*
X150696151Y-115741737D01*
X151161698Y-115430668D01*
X151417000Y-115048582D01*
X151672302Y-115430668D01*
X152137849Y-115741737D01*
X152687000Y-115850970D01*
X153236151Y-115741737D01*
X153701698Y-115430668D01*
X154012767Y-114965121D01*
X154122000Y-114415970D01*
X154122000Y-113646030D01*
X154012767Y-113096879D01*
X153788340Y-112761000D01*
X157639519Y-112761000D01*
X157330233Y-113223879D01*
X157221000Y-113773030D01*
X157221000Y-114542970D01*
X157330233Y-115092121D01*
X157641302Y-115557668D01*
X158106849Y-115868737D01*
X158656000Y-115977970D01*
X159205151Y-115868737D01*
X159670698Y-115557668D01*
X159926000Y-115175582D01*
X160181302Y-115557668D01*
X160646849Y-115868737D01*
X161196000Y-115977970D01*
X161745151Y-115868737D01*
X162210698Y-115557668D01*
X162466000Y-115175582D01*
X162721302Y-115557668D01*
X163186849Y-115868737D01*
X163736000Y-115977970D01*
X164285151Y-115868737D01*
X164750698Y-115557668D01*
X165061767Y-115092121D01*
X165171000Y-114542970D01*
X165171000Y-113773030D01*
X165061767Y-113223879D01*
X164752481Y-112761000D01*
X166290000Y-112761000D01*
X166290000Y-119290000D01*
X117710000Y-119290000D01*
X117710000Y-116475750D01*
X118041400Y-116475750D01*
X118041400Y-117332309D01*
X118138073Y-117565698D01*
X118316701Y-117744327D01*
X118550090Y-117841000D01*
X119254250Y-117841000D01*
X119413000Y-117682250D01*
X119413000Y-116317000D01*
X118200150Y-116317000D01*
X118041400Y-116475750D01*
X117710000Y-116475750D01*
X117710000Y-115047691D01*
X118041400Y-115047691D01*
X118041400Y-115904250D01*
X118200150Y-116063000D01*
X119413000Y-116063000D01*
X119413000Y-114697750D01*
X119667000Y-114697750D01*
X119667000Y-116063000D01*
X119687000Y-116063000D01*
X119687000Y-116317000D01*
X119667000Y-116317000D01*
X119667000Y-117682250D01*
X119825750Y-117841000D01*
X120529910Y-117841000D01*
X120763299Y-117744327D01*
X120941927Y-117565698D01*
X121005500Y-117412220D01*
X121020330Y-117434415D01*
X121506511Y-117759271D01*
X122080000Y-117873345D01*
X122653489Y-117759271D01*
X123139670Y-117434415D01*
X123350000Y-117119634D01*
X123560330Y-117434415D01*
X124046511Y-117759271D01*
X124620000Y-117873345D01*
X125193489Y-117759271D01*
X125679670Y-117434415D01*
X125890000Y-117119634D01*
X126100330Y-117434415D01*
X126586511Y-117759271D01*
X127160000Y-117873345D01*
X127733489Y-117759271D01*
X128219670Y-117434415D01*
X128430000Y-117119634D01*
X128640330Y-117434415D01*
X129126511Y-117759271D01*
X129700000Y-117873345D01*
X130273489Y-117759271D01*
X130759670Y-117434415D01*
X130970000Y-117119634D01*
X131180330Y-117434415D01*
X131666511Y-117759271D01*
X132240000Y-117873345D01*
X132813489Y-117759271D01*
X133299670Y-117434415D01*
X133624526Y-116948234D01*
X133738600Y-116374745D01*
X133738600Y-116005255D01*
X133624526Y-115431766D01*
X133299670Y-114945585D01*
X132813489Y-114620729D01*
X132240000Y-114506655D01*
X131666511Y-114620729D01*
X131180330Y-114945585D01*
X130970000Y-115260366D01*
X130759670Y-114945585D01*
X130273489Y-114620729D01*
X129700000Y-114506655D01*
X129126511Y-114620729D01*
X128640330Y-114945585D01*
X128430000Y-115260366D01*
X128219670Y-114945585D01*
X127733489Y-114620729D01*
X127160000Y-114506655D01*
X126586511Y-114620729D01*
X126100330Y-114945585D01*
X125890000Y-115260366D01*
X125679670Y-114945585D01*
X125193489Y-114620729D01*
X124620000Y-114506655D01*
X124046511Y-114620729D01*
X123560330Y-114945585D01*
X123350000Y-115260366D01*
X123139670Y-114945585D01*
X122653489Y-114620729D01*
X122080000Y-114506655D01*
X121506511Y-114620729D01*
X121020330Y-114945585D01*
X121005500Y-114967780D01*
X120941927Y-114814302D01*
X120763299Y-114635673D01*
X120529910Y-114539000D01*
X119825750Y-114539000D01*
X119667000Y-114697750D01*
X119413000Y-114697750D01*
X119254250Y-114539000D01*
X118550090Y-114539000D01*
X118316701Y-114635673D01*
X118138073Y-114814302D01*
X118041400Y-115047691D01*
X117710000Y-115047691D01*
X117710000Y-112761000D01*
X135710660Y-112761000D01*
X135486233Y-113096879D01*
G36*
X165998000Y-80249000D02*
X132019139Y-80249000D01*
X125763000Y-76745562D01*
X125763000Y-75219132D01*
X130904623Y-75219132D01*
X131235353Y-76019560D01*
X131847218Y-76632495D01*
X132647068Y-76964621D01*
X133513132Y-76965377D01*
X134313560Y-76634647D01*
X134926495Y-76022782D01*
X135258621Y-75222932D01*
X135258624Y-75219132D01*
X141572623Y-75219132D01*
X141903353Y-76019560D01*
X142515218Y-76632495D01*
X143315068Y-76964621D01*
X144181132Y-76965377D01*
X144981560Y-76634647D01*
X145594495Y-76022782D01*
X145926621Y-75222932D01*
X145926624Y-75219132D01*
X152240623Y-75219132D01*
X152571353Y-76019560D01*
X153183218Y-76632495D01*
X153983068Y-76964621D01*
X154849132Y-76965377D01*
X155649560Y-76634647D01*
X156262495Y-76022782D01*
X156594621Y-75222932D01*
X156595377Y-74356868D01*
X156264647Y-73556440D01*
X155652782Y-72943505D01*
X154852932Y-72611379D01*
X153986868Y-72610623D01*
X153186440Y-72941353D01*
X152573505Y-73553218D01*
X152241379Y-74353068D01*
X152240623Y-75219132D01*
X145926624Y-75219132D01*
X145927377Y-74356868D01*
X145596647Y-73556440D01*
X144984782Y-72943505D01*
X144184932Y-72611379D01*
X143318868Y-72610623D01*
X142518440Y-72941353D01*
X141905505Y-73553218D01*
X141573379Y-74353068D01*
X141572623Y-75219132D01*
X135258624Y-75219132D01*
X135259377Y-74356868D01*
X134928647Y-73556440D01*
X134316782Y-72943505D01*
X133516932Y-72611379D01*
X132650868Y-72610623D01*
X131850440Y-72941353D01*
X131237505Y-73553218D01*
X130905379Y-74353068D01*
X130904623Y-75219132D01*
X125763000Y-75219132D01*
X125763000Y-71002000D01*
X165998000Y-71002000D01*
X165998000Y-80249000D01*
X165998000Y-80249000D01*
G37*
X165998000Y-80249000D02*
X132019139Y-80249000D01*
X125763000Y-76745562D01*
X125763000Y-75219132D01*
X130904623Y-75219132D01*
X131235353Y-76019560D01*
X131847218Y-76632495D01*
X132647068Y-76964621D01*
X133513132Y-76965377D01*
X134313560Y-76634647D01*
X134926495Y-76022782D01*
X135258621Y-75222932D01*
X135258624Y-75219132D01*
X141572623Y-75219132D01*
X141903353Y-76019560D01*
X142515218Y-76632495D01*
X143315068Y-76964621D01*
X144181132Y-76965377D01*
X144981560Y-76634647D01*
X145594495Y-76022782D01*
X145926621Y-75222932D01*
X145926624Y-75219132D01*
X152240623Y-75219132D01*
X152571353Y-76019560D01*
X153183218Y-76632495D01*
X153983068Y-76964621D01*
X154849132Y-76965377D01*
X155649560Y-76634647D01*
X156262495Y-76022782D01*
X156594621Y-75222932D01*
X156595377Y-74356868D01*
X156264647Y-73556440D01*
X155652782Y-72943505D01*
X154852932Y-72611379D01*
X153986868Y-72610623D01*
X153186440Y-72941353D01*
X152573505Y-73553218D01*
X152241379Y-74353068D01*
X152240623Y-75219132D01*
X145926624Y-75219132D01*
X145927377Y-74356868D01*
X145596647Y-73556440D01*
X144984782Y-72943505D01*
X144184932Y-72611379D01*
X143318868Y-72610623D01*
X142518440Y-72941353D01*
X141905505Y-73553218D01*
X141573379Y-74353068D01*
X141572623Y-75219132D01*
X135258624Y-75219132D01*
X135259377Y-74356868D01*
X134928647Y-73556440D01*
X134316782Y-72943505D01*
X133516932Y-72611379D01*
X132650868Y-72610623D01*
X131850440Y-72941353D01*
X131237505Y-73553218D01*
X130905379Y-74353068D01*
X130904623Y-75219132D01*
X125763000Y-75219132D01*
X125763000Y-71002000D01*
X165998000Y-71002000D01*
X165998000Y-80249000D01*
G36*
X124493000Y-77328000D02*
X124503006Y-77377410D01*
X124531447Y-77419035D01*
X124556990Y-77438267D01*
X131668990Y-81502267D01*
X131732000Y-81519000D01*
X165998000Y-81519000D01*
X165998000Y-83057188D01*
X165912884Y-83021845D01*
X165146479Y-83021176D01*
X164438157Y-83313849D01*
X163895754Y-83855306D01*
X163601845Y-84563116D01*
X163601176Y-85329521D01*
X163893849Y-86037843D01*
X164101000Y-86245356D01*
X164101000Y-87136918D01*
X162472959Y-88764959D01*
X162163624Y-89227911D01*
X162055000Y-89774000D01*
X162055000Y-91289974D01*
X161911304Y-91500279D01*
X161836839Y-91868000D01*
X161836839Y-93268000D01*
X161901478Y-93611526D01*
X162104501Y-93927033D01*
X162414279Y-94138696D01*
X162782000Y-94213161D01*
X164182000Y-94213161D01*
X164525526Y-94148522D01*
X164841033Y-93945499D01*
X165052696Y-93635721D01*
X165127161Y-93268000D01*
X165127161Y-91868000D01*
X165062522Y-91524474D01*
X164909000Y-91285894D01*
X164909000Y-90365082D01*
X165998000Y-89276082D01*
X165998000Y-105141000D01*
X165100741Y-105141000D01*
X164957173Y-104926136D01*
X164396894Y-104551769D01*
X163736000Y-104420309D01*
X163075106Y-104551769D01*
X162514827Y-104926136D01*
X162466000Y-104999211D01*
X162417173Y-104926136D01*
X161856894Y-104551769D01*
X161196000Y-104420309D01*
X160535106Y-104551769D01*
X159974827Y-104926136D01*
X159926000Y-104999211D01*
X159877173Y-104926136D01*
X159316894Y-104551769D01*
X158656000Y-104420309D01*
X157995106Y-104551769D01*
X157434827Y-104926136D01*
X157291259Y-105141000D01*
X154136600Y-105141000D01*
X153908173Y-104799136D01*
X153347894Y-104424769D01*
X152687000Y-104293309D01*
X152026106Y-104424769D01*
X151465827Y-104799136D01*
X151417000Y-104872211D01*
X151368173Y-104799136D01*
X150807894Y-104424769D01*
X150147000Y-104293309D01*
X149486106Y-104424769D01*
X148925827Y-104799136D01*
X148877000Y-104872211D01*
X148828173Y-104799136D01*
X148267894Y-104424769D01*
X147607000Y-104293309D01*
X146946106Y-104424769D01*
X146385827Y-104799136D01*
X146157400Y-105141000D01*
X143341600Y-105141000D01*
X143113173Y-104799136D01*
X142552894Y-104424769D01*
X141892000Y-104293309D01*
X141231106Y-104424769D01*
X140670827Y-104799136D01*
X140622000Y-104872211D01*
X140573173Y-104799136D01*
X140012894Y-104424769D01*
X139352000Y-104293309D01*
X138691106Y-104424769D01*
X138130827Y-104799136D01*
X138082000Y-104872211D01*
X138033173Y-104799136D01*
X137472894Y-104424769D01*
X136812000Y-104293309D01*
X136151106Y-104424769D01*
X135590827Y-104799136D01*
X135362400Y-105141000D01*
X131097000Y-105141000D01*
X131097000Y-99934000D01*
X131086994Y-99884590D01*
X131038993Y-99827375D01*
X126944000Y-97177674D01*
X126944000Y-89568260D01*
X126858935Y-89140611D01*
X126616692Y-88778068D01*
X126397369Y-88631521D01*
X135647176Y-88631521D01*
X135939849Y-89339843D01*
X136481306Y-89882246D01*
X137189116Y-90176155D01*
X137955521Y-90176824D01*
X138179000Y-90084484D01*
X138179000Y-91289974D01*
X138035304Y-91500279D01*
X137960839Y-91868000D01*
X137960839Y-93268000D01*
X138025478Y-93611526D01*
X138228501Y-93927033D01*
X138538279Y-94138696D01*
X138906000Y-94213161D01*
X140306000Y-94213161D01*
X140649526Y-94148522D01*
X140965033Y-93945499D01*
X141176696Y-93635721D01*
X141251161Y-93268000D01*
X141251161Y-91868000D01*
X141186522Y-91524474D01*
X141033000Y-91285894D01*
X141033000Y-89337681D01*
X141319376Y-88909090D01*
X141348270Y-88763831D01*
X141428000Y-88363000D01*
X141428000Y-86372582D01*
X141633246Y-86167694D01*
X141927155Y-85459884D01*
X141927268Y-85329521D01*
X148601176Y-85329521D01*
X148893849Y-86037843D01*
X149435306Y-86580246D01*
X150143116Y-86874155D01*
X150909521Y-86874824D01*
X151447341Y-86652601D01*
X150941754Y-87157306D01*
X150647845Y-87865116D01*
X150647176Y-88631521D01*
X150939849Y-89339843D01*
X151025333Y-89425476D01*
X150987624Y-89481911D01*
X150879000Y-90028000D01*
X150879000Y-91289974D01*
X150735304Y-91500279D01*
X150660839Y-91868000D01*
X150660839Y-93268000D01*
X150725478Y-93611526D01*
X150928501Y-93927033D01*
X151238279Y-94138696D01*
X151606000Y-94213161D01*
X153006000Y-94213161D01*
X153349526Y-94148522D01*
X153665033Y-93945499D01*
X153876696Y-93635721D01*
X153951161Y-93268000D01*
X153951161Y-91868000D01*
X153886522Y-91524474D01*
X153733000Y-91285894D01*
X153733000Y-90544613D01*
X153892376Y-90306090D01*
X153918088Y-90176824D01*
X154001000Y-89760000D01*
X154001000Y-89547582D01*
X154206246Y-89342694D01*
X154500155Y-88634884D01*
X154500824Y-87868479D01*
X154208151Y-87160157D01*
X153666694Y-86617754D01*
X152958884Y-86323845D01*
X152192479Y-86323176D01*
X151654659Y-86545399D01*
X152160246Y-86040694D01*
X152454155Y-85332884D01*
X152454824Y-84566479D01*
X152162151Y-83858157D01*
X151620694Y-83315754D01*
X150912884Y-83021845D01*
X150146479Y-83021176D01*
X149438157Y-83313849D01*
X148895754Y-83855306D01*
X148601845Y-84563116D01*
X148601176Y-85329521D01*
X141927268Y-85329521D01*
X141927824Y-84693479D01*
X141635151Y-83985157D01*
X141093694Y-83442754D01*
X140385884Y-83148845D01*
X139619479Y-83148176D01*
X138911157Y-83440849D01*
X138368754Y-83982306D01*
X138074845Y-84690116D01*
X138074176Y-85456521D01*
X138366849Y-86164843D01*
X138574000Y-86372356D01*
X138574000Y-86579264D01*
X137958884Y-86323845D01*
X137192479Y-86323176D01*
X136484157Y-86615849D01*
X135941754Y-87157306D01*
X135647845Y-87865116D01*
X135647176Y-88631521D01*
X126397369Y-88631521D01*
X126254149Y-88535825D01*
X125826500Y-88450760D01*
X118002000Y-88450760D01*
X118002000Y-85456521D01*
X123074176Y-85456521D01*
X123366849Y-86164843D01*
X123908306Y-86707246D01*
X124616116Y-87001155D01*
X125382521Y-87001824D01*
X126090843Y-86709151D01*
X126633246Y-86167694D01*
X126927155Y-85459884D01*
X126927824Y-84693479D01*
X126635151Y-83985157D01*
X126093694Y-83442754D01*
X125385884Y-83148845D01*
X124619479Y-83148176D01*
X123911157Y-83440849D01*
X123368754Y-83982306D01*
X123074845Y-84690116D01*
X123074176Y-85456521D01*
X118002000Y-85456521D01*
X118002000Y-71002000D01*
X124493000Y-71002000D01*
X124493000Y-77328000D01*
X124493000Y-77328000D01*
G37*
X124493000Y-77328000D02*
X124503006Y-77377410D01*
X124531447Y-77419035D01*
X124556990Y-77438267D01*
X131668990Y-81502267D01*
X131732000Y-81519000D01*
X165998000Y-81519000D01*
X165998000Y-83057188D01*
X165912884Y-83021845D01*
X165146479Y-83021176D01*
X164438157Y-83313849D01*
X163895754Y-83855306D01*
X163601845Y-84563116D01*
X163601176Y-85329521D01*
X163893849Y-86037843D01*
X164101000Y-86245356D01*
X164101000Y-87136918D01*
X162472959Y-88764959D01*
X162163624Y-89227911D01*
X162055000Y-89774000D01*
X162055000Y-91289974D01*
X161911304Y-91500279D01*
X161836839Y-91868000D01*
X161836839Y-93268000D01*
X161901478Y-93611526D01*
X162104501Y-93927033D01*
X162414279Y-94138696D01*
X162782000Y-94213161D01*
X164182000Y-94213161D01*
X164525526Y-94148522D01*
X164841033Y-93945499D01*
X165052696Y-93635721D01*
X165127161Y-93268000D01*
X165127161Y-91868000D01*
X165062522Y-91524474D01*
X164909000Y-91285894D01*
X164909000Y-90365082D01*
X165998000Y-89276082D01*
X165998000Y-105141000D01*
X165100741Y-105141000D01*
X164957173Y-104926136D01*
X164396894Y-104551769D01*
X163736000Y-104420309D01*
X163075106Y-104551769D01*
X162514827Y-104926136D01*
X162466000Y-104999211D01*
X162417173Y-104926136D01*
X161856894Y-104551769D01*
X161196000Y-104420309D01*
X160535106Y-104551769D01*
X159974827Y-104926136D01*
X159926000Y-104999211D01*
X159877173Y-104926136D01*
X159316894Y-104551769D01*
X158656000Y-104420309D01*
X157995106Y-104551769D01*
X157434827Y-104926136D01*
X157291259Y-105141000D01*
X154136600Y-105141000D01*
X153908173Y-104799136D01*
X153347894Y-104424769D01*
X152687000Y-104293309D01*
X152026106Y-104424769D01*
X151465827Y-104799136D01*
X151417000Y-104872211D01*
X151368173Y-104799136D01*
X150807894Y-104424769D01*
X150147000Y-104293309D01*
X149486106Y-104424769D01*
X148925827Y-104799136D01*
X148877000Y-104872211D01*
X148828173Y-104799136D01*
X148267894Y-104424769D01*
X147607000Y-104293309D01*
X146946106Y-104424769D01*
X146385827Y-104799136D01*
X146157400Y-105141000D01*
X143341600Y-105141000D01*
X143113173Y-104799136D01*
X142552894Y-104424769D01*
X141892000Y-104293309D01*
X141231106Y-104424769D01*
X140670827Y-104799136D01*
X140622000Y-104872211D01*
X140573173Y-104799136D01*
X140012894Y-104424769D01*
X139352000Y-104293309D01*
X138691106Y-104424769D01*
X138130827Y-104799136D01*
X138082000Y-104872211D01*
X138033173Y-104799136D01*
X137472894Y-104424769D01*
X136812000Y-104293309D01*
X136151106Y-104424769D01*
X135590827Y-104799136D01*
X135362400Y-105141000D01*
X131097000Y-105141000D01*
X131097000Y-99934000D01*
X131086994Y-99884590D01*
X131038993Y-99827375D01*
X126944000Y-97177674D01*
X126944000Y-89568260D01*
X126858935Y-89140611D01*
X126616692Y-88778068D01*
X126397369Y-88631521D01*
X135647176Y-88631521D01*
X135939849Y-89339843D01*
X136481306Y-89882246D01*
X137189116Y-90176155D01*
X137955521Y-90176824D01*
X138179000Y-90084484D01*
X138179000Y-91289974D01*
X138035304Y-91500279D01*
X137960839Y-91868000D01*
X137960839Y-93268000D01*
X138025478Y-93611526D01*
X138228501Y-93927033D01*
X138538279Y-94138696D01*
X138906000Y-94213161D01*
X140306000Y-94213161D01*
X140649526Y-94148522D01*
X140965033Y-93945499D01*
X141176696Y-93635721D01*
X141251161Y-93268000D01*
X141251161Y-91868000D01*
X141186522Y-91524474D01*
X141033000Y-91285894D01*
X141033000Y-89337681D01*
X141319376Y-88909090D01*
X141348270Y-88763831D01*
X141428000Y-88363000D01*
X141428000Y-86372582D01*
X141633246Y-86167694D01*
X141927155Y-85459884D01*
X141927268Y-85329521D01*
X148601176Y-85329521D01*
X148893849Y-86037843D01*
X149435306Y-86580246D01*
X150143116Y-86874155D01*
X150909521Y-86874824D01*
X151447341Y-86652601D01*
X150941754Y-87157306D01*
X150647845Y-87865116D01*
X150647176Y-88631521D01*
X150939849Y-89339843D01*
X151025333Y-89425476D01*
X150987624Y-89481911D01*
X150879000Y-90028000D01*
X150879000Y-91289974D01*
X150735304Y-91500279D01*
X150660839Y-91868000D01*
X150660839Y-93268000D01*
X150725478Y-93611526D01*
X150928501Y-93927033D01*
X151238279Y-94138696D01*
X151606000Y-94213161D01*
X153006000Y-94213161D01*
X153349526Y-94148522D01*
X153665033Y-93945499D01*
X153876696Y-93635721D01*
X153951161Y-93268000D01*
X153951161Y-91868000D01*
X153886522Y-91524474D01*
X153733000Y-91285894D01*
X153733000Y-90544613D01*
X153892376Y-90306090D01*
X153918088Y-90176824D01*
X154001000Y-89760000D01*
X154001000Y-89547582D01*
X154206246Y-89342694D01*
X154500155Y-88634884D01*
X154500824Y-87868479D01*
X154208151Y-87160157D01*
X153666694Y-86617754D01*
X152958884Y-86323845D01*
X152192479Y-86323176D01*
X151654659Y-86545399D01*
X152160246Y-86040694D01*
X152454155Y-85332884D01*
X152454824Y-84566479D01*
X152162151Y-83858157D01*
X151620694Y-83315754D01*
X150912884Y-83021845D01*
X150146479Y-83021176D01*
X149438157Y-83313849D01*
X148895754Y-83855306D01*
X148601845Y-84563116D01*
X148601176Y-85329521D01*
X141927268Y-85329521D01*
X141927824Y-84693479D01*
X141635151Y-83985157D01*
X141093694Y-83442754D01*
X140385884Y-83148845D01*
X139619479Y-83148176D01*
X138911157Y-83440849D01*
X138368754Y-83982306D01*
X138074845Y-84690116D01*
X138074176Y-85456521D01*
X138366849Y-86164843D01*
X138574000Y-86372356D01*
X138574000Y-86579264D01*
X137958884Y-86323845D01*
X137192479Y-86323176D01*
X136484157Y-86615849D01*
X135941754Y-87157306D01*
X135647845Y-87865116D01*
X135647176Y-88631521D01*
X126397369Y-88631521D01*
X126254149Y-88535825D01*
X125826500Y-88450760D01*
X118002000Y-88450760D01*
X118002000Y-85456521D01*
X123074176Y-85456521D01*
X123366849Y-86164843D01*
X123908306Y-86707246D01*
X124616116Y-87001155D01*
X125382521Y-87001824D01*
X126090843Y-86709151D01*
X126633246Y-86167694D01*
X126927155Y-85459884D01*
X126927824Y-84693479D01*
X126635151Y-83985157D01*
X126093694Y-83442754D01*
X125385884Y-83148845D01*
X124619479Y-83148176D01*
X123911157Y-83440849D01*
X123368754Y-83982306D01*
X123074845Y-84690116D01*
X123074176Y-85456521D01*
X118002000Y-85456521D01*
X118002000Y-71002000D01*
X124493000Y-71002000D01*
X124493000Y-77328000D01*
M02*
