G04 #@! TF.FileFunction,Copper,L2,Bot,Signal*
%FSLAX46Y46*%
G04 Gerber Fmt 4.6, Leading zero omitted, Abs format (unit mm)*
G04 Created by KiCad (PCBNEW 4.0.2-stable) date 3/20/2016 1:32:16 PM*
%MOMM*%
G01*
G04 APERTURE LIST*
%ADD10C,0.100000*%
%ADD11R,1.501140X2.499360*%
%ADD12R,7.000240X7.000240*%
%ADD13R,1.400000X1.400000*%
%ADD14C,1.400000*%
%ADD15R,2.500000X2.500000*%
%ADD16C,2.500000*%
%ADD17R,1.727200X2.032000*%
%ADD18O,1.727200X2.032000*%
%ADD19C,1.998980*%
%ADD20R,1.700000X0.900000*%
%ADD21R,0.900000X1.700000*%
%ADD22R,0.899160X0.899160*%
%ADD23O,1.600000X2.300000*%
%ADD24C,1.000000*%
%ADD25C,0.600000*%
%ADD26C,0.500000*%
%ADD27C,1.000000*%
%ADD28C,2.000000*%
%ADD29C,1.800000*%
%ADD30C,0.750000*%
G04 APERTURE END LIST*
D10*
D11*
X143172160Y-85054680D03*
X147723840Y-85054680D03*
D12*
X145448000Y-91953320D03*
D13*
X152306000Y-92568000D03*
D14*
X152306000Y-102568000D03*
D13*
X163482000Y-92568000D03*
D14*
X163482000Y-102568000D03*
D13*
X139606000Y-92568000D03*
D14*
X139606000Y-102568000D03*
D15*
X127414000Y-74788000D03*
D16*
X122414000Y-74788000D03*
D15*
X138082000Y-74788000D03*
D16*
X133082000Y-74788000D03*
D15*
X148750000Y-74788000D03*
D16*
X143750000Y-74788000D03*
D15*
X159418000Y-74788000D03*
D16*
X154418000Y-74788000D03*
D17*
X119540000Y-116190000D03*
D18*
X122080000Y-116190000D03*
X124620000Y-116190000D03*
X127160000Y-116190000D03*
X129700000Y-116190000D03*
X132240000Y-116190000D03*
D19*
X137574000Y-88250000D03*
X152574000Y-88250000D03*
X150528000Y-84948000D03*
X165528000Y-84948000D03*
X125001000Y-85075000D03*
X140001000Y-85075000D03*
D20*
X121445000Y-79180000D03*
X121445000Y-82080000D03*
X118905000Y-79180000D03*
X118905000Y-82080000D03*
X121445000Y-83625000D03*
X121445000Y-86525000D03*
X118905000Y-83625000D03*
X118905000Y-86525000D03*
D21*
X141966000Y-81646000D03*
X144866000Y-81646000D03*
X130790000Y-81900000D03*
X133690000Y-81900000D03*
X153396000Y-81646000D03*
X156296000Y-81646000D03*
D20*
X121445000Y-88070000D03*
X121445000Y-90970000D03*
X118905000Y-88070000D03*
X118905000Y-90970000D03*
D21*
X146792000Y-81646000D03*
X149692000Y-81646000D03*
X157968000Y-81646000D03*
X160868000Y-81646000D03*
X135235000Y-81900000D03*
X138135000Y-81900000D03*
D20*
X121445000Y-92515000D03*
X121445000Y-95415000D03*
X118905000Y-92515000D03*
X118905000Y-95415000D03*
X157259000Y-101151000D03*
X157259000Y-104051000D03*
X145448000Y-101024000D03*
X145448000Y-103924000D03*
X134780000Y-101151000D03*
X134780000Y-104051000D03*
D21*
X161376000Y-116952000D03*
X158476000Y-116952000D03*
X147808000Y-116698000D03*
X150708000Y-116698000D03*
X138156000Y-116698000D03*
X141056000Y-116698000D03*
D22*
X124874000Y-97190800D03*
X122334000Y-97190800D03*
X122334000Y-103693200D03*
X124874000Y-103693200D03*
X120810000Y-97190800D03*
X118270000Y-97190800D03*
X118270000Y-103693200D03*
X120810000Y-103693200D03*
D23*
X147607000Y-114031000D03*
X150147000Y-114031000D03*
X152687000Y-114031000D03*
X152687000Y-106411000D03*
X150147000Y-106411000D03*
X147607000Y-106411000D03*
X136812000Y-114031000D03*
X139352000Y-114031000D03*
X141892000Y-114031000D03*
X141892000Y-106411000D03*
X139352000Y-106411000D03*
X136812000Y-106411000D03*
X158656000Y-114158000D03*
X161196000Y-114158000D03*
X163736000Y-114158000D03*
X163736000Y-106538000D03*
X161196000Y-106538000D03*
X158656000Y-106538000D03*
D11*
X128948160Y-85054680D03*
X133499840Y-85054680D03*
D12*
X131224000Y-91953320D03*
D11*
X155364160Y-85054680D03*
X159915840Y-85054680D03*
D12*
X157640000Y-91953320D03*
D24*
X159672000Y-96124000D03*
X157640000Y-96124000D03*
X155354000Y-96124000D03*
X147480000Y-96124000D03*
X145448000Y-96124000D03*
X143162000Y-96124000D03*
X133510000Y-96124000D03*
X131224000Y-96124000D03*
X128684000Y-96124000D03*
D25*
X156116000Y-117968000D03*
X152814000Y-116444000D03*
X143924000Y-115936000D03*
D26*
X152574000Y-92300000D02*
X152306000Y-92568000D01*
D27*
X157640000Y-91953320D02*
X157640000Y-94092000D01*
X157640000Y-94092000D02*
X159672000Y-96124000D01*
X157640000Y-91953320D02*
X157640000Y-96124000D01*
X157640000Y-91953320D02*
X157640000Y-93838000D01*
X157640000Y-93838000D02*
X155354000Y-96124000D01*
X145448000Y-91953320D02*
X145448000Y-94092000D01*
X145448000Y-94092000D02*
X147480000Y-96124000D01*
X145448000Y-91953320D02*
X145448000Y-96124000D01*
X145448000Y-91953320D02*
X145448000Y-93838000D01*
X145448000Y-93838000D02*
X143162000Y-96124000D01*
X131224000Y-91953320D02*
X131224000Y-93838000D01*
X131224000Y-93838000D02*
X133510000Y-96124000D01*
X131224000Y-91953320D02*
X131224000Y-96124000D01*
X131224000Y-91953320D02*
X131224000Y-93584000D01*
X131224000Y-93584000D02*
X128684000Y-96124000D01*
D26*
X139606000Y-102568000D02*
X138176000Y-102568000D01*
X136759000Y-101151000D02*
X134780000Y-101151000D01*
X138176000Y-102568000D02*
X136759000Y-101151000D01*
X152306000Y-102568000D02*
X149860000Y-102568000D01*
X148316000Y-101024000D02*
X145448000Y-101024000D01*
X149860000Y-102568000D02*
X148316000Y-101024000D01*
X163482000Y-102568000D02*
X161798000Y-102568000D01*
X160381000Y-101151000D02*
X157259000Y-101151000D01*
X161798000Y-102568000D02*
X160381000Y-101151000D01*
D27*
X139606000Y-102568000D02*
X139606000Y-100335320D01*
X139606000Y-100335320D02*
X131224000Y-91953320D01*
X152306000Y-102568000D02*
X152306000Y-98811320D01*
X152306000Y-98811320D02*
X145448000Y-91953320D01*
X163482000Y-102568000D02*
X163482000Y-97795320D01*
X163482000Y-97795320D02*
X157640000Y-91953320D01*
D26*
X163482000Y-102568000D02*
X163068000Y-102568000D01*
X118905000Y-79180000D02*
X118905000Y-75296000D01*
X118905000Y-75296000D02*
X119413000Y-74788000D01*
X119413000Y-74788000D02*
X122414000Y-74788000D01*
X121445000Y-79180000D02*
X126070000Y-79180000D01*
X126070000Y-79180000D02*
X127414000Y-77836000D01*
X127414000Y-77836000D02*
X127414000Y-74788000D01*
D28*
X130790000Y-81900000D02*
X130790000Y-83212840D01*
X130790000Y-83212840D02*
X128948160Y-85054680D01*
X133082000Y-74788000D02*
X130790000Y-77080000D01*
X130790000Y-77080000D02*
X130790000Y-81900000D01*
D27*
X125001000Y-85075000D02*
X128927840Y-85075000D01*
X128927840Y-85075000D02*
X129054840Y-84948000D01*
D28*
X141966000Y-81646000D02*
X141966000Y-76572000D01*
X141966000Y-76572000D02*
X143750000Y-74788000D01*
X143172160Y-84259660D02*
X141966000Y-83053500D01*
X141966000Y-83053500D02*
X141966000Y-81646000D01*
X143172160Y-85054680D02*
X143172160Y-84259660D01*
D29*
X143172160Y-85054680D02*
X143172160Y-84630160D01*
D27*
X143172160Y-85054680D02*
X143172160Y-85445840D01*
X143172160Y-85445840D02*
X140368000Y-88250000D01*
X140368000Y-88250000D02*
X137574000Y-88250000D01*
D28*
X153396000Y-81646000D02*
X153396000Y-83086520D01*
X153396000Y-83086520D02*
X155364160Y-85054680D01*
X153396000Y-79032000D02*
X153396000Y-81646000D01*
X154418000Y-74788000D02*
X154418000Y-78010000D01*
X154418000Y-78010000D02*
X153396000Y-79032000D01*
D27*
X150528000Y-84948000D02*
X155257480Y-84948000D01*
X155257480Y-84948000D02*
X155364160Y-85054680D01*
D26*
X158656000Y-114158000D02*
X156370000Y-114158000D01*
X132240000Y-117968000D02*
X132240000Y-116190000D01*
X133256000Y-118984000D02*
X132240000Y-117968000D01*
X152306000Y-118984000D02*
X133256000Y-118984000D01*
X154846000Y-116444000D02*
X152306000Y-118984000D01*
X154846000Y-115682000D02*
X154846000Y-116444000D01*
X156370000Y-114158000D02*
X154846000Y-115682000D01*
X147607000Y-114031000D02*
X147099000Y-114031000D01*
X147099000Y-114031000D02*
X145448000Y-115682000D01*
X145448000Y-115682000D02*
X145448000Y-116444000D01*
X145448000Y-116444000D02*
X143608002Y-118283998D01*
X143608002Y-118283998D02*
X136873998Y-118283998D01*
X136873998Y-118283998D02*
X134526000Y-115936000D01*
X134526000Y-115936000D02*
X134526000Y-114412000D01*
X134526000Y-114412000D02*
X133764000Y-113650000D01*
X133764000Y-113650000D02*
X130208000Y-113650000D01*
X130208000Y-113650000D02*
X129700000Y-114158000D01*
X129700000Y-114158000D02*
X129700000Y-116190000D01*
X136812000Y-114031000D02*
X136177000Y-114031000D01*
X136177000Y-114031000D02*
X134018000Y-111872000D01*
X134018000Y-111872000D02*
X128176000Y-111872000D01*
X128176000Y-111872000D02*
X127160000Y-112888000D01*
X127160000Y-112888000D02*
X127160000Y-116190000D01*
X122080000Y-116190000D02*
X122080000Y-106538000D01*
X122334000Y-106284000D02*
X122334000Y-103693200D01*
X122080000Y-106538000D02*
X122334000Y-106284000D01*
X118270000Y-103693200D02*
X118270000Y-103490000D01*
X118270000Y-103490000D02*
X119286000Y-102474000D01*
X119286000Y-102474000D02*
X123654800Y-102474000D01*
X123654800Y-102474000D02*
X124874000Y-103693200D01*
X124874000Y-103693200D02*
X124874000Y-115936000D01*
X124874000Y-115936000D02*
X124620000Y-116190000D01*
X158476000Y-116952000D02*
X157132000Y-116952000D01*
X157132000Y-116952000D02*
X156116000Y-117968000D01*
X150708000Y-116698000D02*
X152560000Y-116698000D01*
X152560000Y-116698000D02*
X152814000Y-116444000D01*
X141056000Y-116698000D02*
X143162000Y-116698000D01*
X143162000Y-116698000D02*
X143924000Y-115936000D01*
X120810000Y-103693200D02*
X120810000Y-113142000D01*
X119540000Y-114412000D02*
X119540000Y-116190000D01*
X120810000Y-113142000D02*
X119540000Y-114412000D01*
X121445000Y-82080000D02*
X121445000Y-83625000D01*
X118905000Y-82080000D02*
X118905000Y-83625000D01*
X121445000Y-86525000D02*
X121445000Y-88070000D01*
X118905000Y-86525000D02*
X118905000Y-88070000D01*
D30*
X146792000Y-81646000D02*
X144866000Y-81646000D01*
X133690000Y-81900000D02*
X135235000Y-81900000D01*
D26*
X156296000Y-81646000D02*
X157968000Y-81646000D01*
X121445000Y-90970000D02*
X121445000Y-92515000D01*
X118905000Y-90970000D02*
X118905000Y-92515000D01*
D30*
X147723840Y-85054680D02*
X147723840Y-83614160D01*
X147723840Y-83614160D02*
X149692000Y-81646000D01*
D26*
X152687000Y-106411000D02*
X152687000Y-105649000D01*
X152687000Y-105649000D02*
X154592000Y-103744000D01*
X154592000Y-103744000D02*
X154592000Y-98664000D01*
X154592000Y-98664000D02*
X150274000Y-94346000D01*
X150274000Y-94346000D02*
X150274000Y-87604840D01*
X150274000Y-87604840D02*
X147723840Y-85054680D01*
X163736000Y-106538000D02*
X163736000Y-105776000D01*
X163736000Y-105776000D02*
X165260000Y-104252000D01*
X165260000Y-104252000D02*
X165260000Y-97648000D01*
X165260000Y-97648000D02*
X161958000Y-94346000D01*
X161958000Y-94346000D02*
X161958000Y-87096840D01*
X161958000Y-87096840D02*
X159915840Y-85054680D01*
X159915840Y-85054680D02*
X159915840Y-82598160D01*
X159915840Y-82598160D02*
X160868000Y-81646000D01*
X141892000Y-106411000D02*
X141892000Y-97648000D01*
X135542000Y-87096840D02*
X133499840Y-85054680D01*
X135542000Y-91298000D02*
X135542000Y-87096840D01*
X141892000Y-97648000D02*
X135542000Y-91298000D01*
D30*
X138135000Y-81900000D02*
X138135000Y-82863000D01*
X135943320Y-85054680D02*
X133499840Y-85054680D01*
X138135000Y-82863000D02*
X135943320Y-85054680D01*
D26*
X122334000Y-97190800D02*
X120810000Y-97190800D01*
X120810000Y-97190800D02*
X120810000Y-96632000D01*
X121445000Y-95997000D02*
X121445000Y-95415000D01*
X120810000Y-96632000D02*
X121445000Y-95997000D01*
X124874000Y-97190800D02*
X124874000Y-96632000D01*
X118905000Y-94473000D02*
X118905000Y-95415000D01*
X119286000Y-94092000D02*
X118905000Y-94473000D01*
X122842000Y-94092000D02*
X119286000Y-94092000D01*
X124874000Y-96124000D02*
X122842000Y-94092000D01*
X124874000Y-96632000D02*
X124874000Y-96124000D01*
X118905000Y-95415000D02*
X118905000Y-95743000D01*
X118905000Y-95743000D02*
X118270000Y-96378000D01*
X118270000Y-96378000D02*
X118270000Y-97190800D01*
X158656000Y-106538000D02*
X157894000Y-106538000D01*
X157894000Y-106538000D02*
X157259000Y-105903000D01*
X157259000Y-105903000D02*
X157259000Y-104051000D01*
X147607000Y-106411000D02*
X146083000Y-106411000D01*
X145448000Y-105776000D02*
X145448000Y-103924000D01*
X146083000Y-106411000D02*
X145448000Y-105776000D01*
X136812000Y-106411000D02*
X135415000Y-106411000D01*
X134780000Y-105776000D02*
X134780000Y-104051000D01*
X135415000Y-106411000D02*
X134780000Y-105776000D01*
X161196000Y-114158000D02*
X161196000Y-116772000D01*
X161196000Y-116772000D02*
X161376000Y-116952000D01*
X161122000Y-114232000D02*
X161196000Y-114158000D01*
X147808000Y-116698000D02*
X147808000Y-116370000D01*
X147808000Y-116370000D02*
X150147000Y-114031000D01*
X150200000Y-114084000D02*
X150147000Y-114031000D01*
X150200000Y-114084000D02*
X150147000Y-114031000D01*
X138156000Y-116698000D02*
X138590000Y-116698000D01*
X138590000Y-116698000D02*
X139352000Y-115936000D01*
X139352000Y-115936000D02*
X139352000Y-114031000D01*
X139278000Y-114105000D02*
X139352000Y-114031000D01*
X139278000Y-114105000D02*
X139352000Y-114031000D01*
M02*
