G04 #@! TF.FileFunction,Soldermask,Bot*
%FSLAX46Y46*%
G04 Gerber Fmt 4.6, Leading zero omitted, Abs format (unit mm)*
G04 Created by KiCad (PCBNEW 4.0.2-stable) date 3/20/2016 1:32:16 PM*
%MOMM*%
G01*
G04 APERTURE LIST*
%ADD10C,0.100000*%
%ADD11R,1.601140X2.599360*%
%ADD12R,7.100240X7.100240*%
%ADD13R,1.500000X1.500000*%
%ADD14C,1.500000*%
%ADD15R,2.600000X2.600000*%
%ADD16C,2.600000*%
%ADD17R,1.827200X2.132000*%
%ADD18O,1.827200X2.132000*%
%ADD19C,2.098980*%
%ADD20R,1.800000X1.000000*%
%ADD21R,1.000000X1.800000*%
%ADD22R,0.999160X0.999160*%
%ADD23O,1.700000X2.400000*%
G04 APERTURE END LIST*
D10*
D11*
X143172160Y-85054680D03*
X147723840Y-85054680D03*
D12*
X145448000Y-91953320D03*
D13*
X152306000Y-92568000D03*
D14*
X152306000Y-102568000D03*
D13*
X163482000Y-92568000D03*
D14*
X163482000Y-102568000D03*
D13*
X139606000Y-92568000D03*
D14*
X139606000Y-102568000D03*
D15*
X127414000Y-74788000D03*
D16*
X122414000Y-74788000D03*
D15*
X138082000Y-74788000D03*
D16*
X133082000Y-74788000D03*
D15*
X148750000Y-74788000D03*
D16*
X143750000Y-74788000D03*
D15*
X159418000Y-74788000D03*
D16*
X154418000Y-74788000D03*
D17*
X119540000Y-116190000D03*
D18*
X122080000Y-116190000D03*
X124620000Y-116190000D03*
X127160000Y-116190000D03*
X129700000Y-116190000D03*
X132240000Y-116190000D03*
D19*
X137574000Y-88250000D03*
X152574000Y-88250000D03*
X150528000Y-84948000D03*
X165528000Y-84948000D03*
X125001000Y-85075000D03*
X140001000Y-85075000D03*
D20*
X121445000Y-79180000D03*
X121445000Y-82080000D03*
X118905000Y-79180000D03*
X118905000Y-82080000D03*
X121445000Y-83625000D03*
X121445000Y-86525000D03*
X118905000Y-83625000D03*
X118905000Y-86525000D03*
D21*
X141966000Y-81646000D03*
X144866000Y-81646000D03*
X130790000Y-81900000D03*
X133690000Y-81900000D03*
X153396000Y-81646000D03*
X156296000Y-81646000D03*
D20*
X121445000Y-88070000D03*
X121445000Y-90970000D03*
X118905000Y-88070000D03*
X118905000Y-90970000D03*
D21*
X146792000Y-81646000D03*
X149692000Y-81646000D03*
X157968000Y-81646000D03*
X160868000Y-81646000D03*
X135235000Y-81900000D03*
X138135000Y-81900000D03*
D20*
X121445000Y-92515000D03*
X121445000Y-95415000D03*
X118905000Y-92515000D03*
X118905000Y-95415000D03*
X157259000Y-101151000D03*
X157259000Y-104051000D03*
X145448000Y-101024000D03*
X145448000Y-103924000D03*
X134780000Y-101151000D03*
X134780000Y-104051000D03*
D21*
X161376000Y-116952000D03*
X158476000Y-116952000D03*
X147808000Y-116698000D03*
X150708000Y-116698000D03*
X138156000Y-116698000D03*
X141056000Y-116698000D03*
D22*
X124874000Y-97190800D03*
X122334000Y-97190800D03*
X122334000Y-103693200D03*
X124874000Y-103693200D03*
X120810000Y-97190800D03*
X118270000Y-97190800D03*
X118270000Y-103693200D03*
X120810000Y-103693200D03*
D23*
X147607000Y-114031000D03*
X150147000Y-114031000D03*
X152687000Y-114031000D03*
X152687000Y-106411000D03*
X150147000Y-106411000D03*
X147607000Y-106411000D03*
X136812000Y-114031000D03*
X139352000Y-114031000D03*
X141892000Y-114031000D03*
X141892000Y-106411000D03*
X139352000Y-106411000D03*
X136812000Y-106411000D03*
X158656000Y-114158000D03*
X161196000Y-114158000D03*
X163736000Y-114158000D03*
X163736000Y-106538000D03*
X161196000Y-106538000D03*
X158656000Y-106538000D03*
D11*
X128948160Y-85054680D03*
X133499840Y-85054680D03*
D12*
X131224000Y-91953320D03*
D11*
X155364160Y-85054680D03*
X159915840Y-85054680D03*
D12*
X157640000Y-91953320D03*
M02*
