M48
;DRILL file {KiCad 4.0.2-stable} date 3/20/2016 1:32:19 PM
;FORMAT={3:3/ absolute / metric / suppress leading zeros}
FMAT,2
METRIC,TZ
T1C0.400
T2C0.800
T3C1.001
T4C1.016
T5C1.300
%
G90
G05
M71
T1
X143924Y-115936
X152814Y-116444
X156116Y-117968
T2
X128684Y-96124
X131224Y-96124
X133510Y-96124
X136812Y-106411
X136812Y-114031
X139352Y-106411
X139352Y-114031
X139606Y-92568
X139606Y-102568
X141892Y-106411
X141892Y-114031
X143162Y-96124
X145448Y-96124
X147480Y-96124
X147607Y-106411
X147607Y-114031
X150147Y-106411
X150147Y-114031
X152306Y-92568
X152306Y-102568
X152687Y-106411
X152687Y-114031
X155354Y-96124
X157640Y-96124
X158656Y-106538
X158656Y-114158
X159672Y-96124
X161196Y-106538
X161196Y-114158
X163482Y-92568
X163482Y-102568
X163736Y-106538
X163736Y-114158
T3
X125001Y-85075
X137574Y-88250
X140001Y-85075
X150528Y-84948
X152574Y-88250
X165528Y-84948
T4
X119540Y-116190
X122080Y-116190
X124620Y-116190
X127160Y-116190
X129700Y-116190
X132240Y-116190
T5
X122414Y-74788
X127414Y-74788
X133082Y-74788
X138082Y-74788
X143750Y-74788
X148750Y-74788
X154418Y-74788
X159418Y-74788
T0
M30
