G04 #@! TF.FileFunction,Legend,Bot*
%FSLAX46Y46*%
G04 Gerber Fmt 4.6, Leading zero omitted, Abs format (unit mm)*
G04 Created by KiCad (PCBNEW 4.0.2-stable) date 3/20/2016 1:32:16 PM*
%MOMM*%
G01*
G04 APERTURE LIST*
%ADD10C,0.100000*%
%ADD11C,0.150000*%
G04 APERTURE END LIST*
D10*
D11*
X141384000Y-87488000D02*
X149385000Y-87488000D01*
X141384000Y-94092000D02*
X141384000Y-84059000D01*
X149385000Y-94092000D02*
X149385000Y-84059000D01*
X122520000Y-81630000D02*
X122520000Y-79630000D01*
X120370000Y-79630000D02*
X120370000Y-81630000D01*
X119980000Y-81630000D02*
X119980000Y-79630000D01*
X117830000Y-79630000D02*
X117830000Y-81630000D01*
X122520000Y-86075000D02*
X122520000Y-84075000D01*
X120370000Y-84075000D02*
X120370000Y-86075000D01*
X119980000Y-86075000D02*
X119980000Y-84075000D01*
X117830000Y-84075000D02*
X117830000Y-86075000D01*
X144416000Y-80571000D02*
X142416000Y-80571000D01*
X142416000Y-82721000D02*
X144416000Y-82721000D01*
X133240000Y-80825000D02*
X131240000Y-80825000D01*
X131240000Y-82975000D02*
X133240000Y-82975000D01*
X155846000Y-80571000D02*
X153846000Y-80571000D01*
X153846000Y-82721000D02*
X155846000Y-82721000D01*
X122520000Y-90520000D02*
X122520000Y-88520000D01*
X120370000Y-88520000D02*
X120370000Y-90520000D01*
X119980000Y-90520000D02*
X119980000Y-88520000D01*
X117830000Y-88520000D02*
X117830000Y-90520000D01*
X149242000Y-80571000D02*
X147242000Y-80571000D01*
X147242000Y-82721000D02*
X149242000Y-82721000D01*
X160418000Y-80571000D02*
X158418000Y-80571000D01*
X158418000Y-82721000D02*
X160418000Y-82721000D01*
X137685000Y-80825000D02*
X135685000Y-80825000D01*
X135685000Y-82975000D02*
X137685000Y-82975000D01*
X122520000Y-94965000D02*
X122520000Y-92965000D01*
X120370000Y-92965000D02*
X120370000Y-94965000D01*
X119980000Y-94965000D02*
X119980000Y-92965000D01*
X117830000Y-92965000D02*
X117830000Y-94965000D01*
X158334000Y-103601000D02*
X158334000Y-101601000D01*
X156184000Y-101601000D02*
X156184000Y-103601000D01*
X146523000Y-103474000D02*
X146523000Y-101474000D01*
X144373000Y-101474000D02*
X144373000Y-103474000D01*
X135855000Y-103601000D02*
X135855000Y-101601000D01*
X133705000Y-101601000D02*
X133705000Y-103601000D01*
X158926000Y-118027000D02*
X160926000Y-118027000D01*
X160926000Y-115877000D02*
X158926000Y-115877000D01*
X150258000Y-115623000D02*
X148258000Y-115623000D01*
X148258000Y-117773000D02*
X150258000Y-117773000D01*
X140606000Y-115623000D02*
X138606000Y-115623000D01*
X138606000Y-117773000D02*
X140606000Y-117773000D01*
X121803140Y-98940860D02*
X122504180Y-98940860D01*
X122504180Y-98940860D02*
X122504180Y-98140760D01*
X121803140Y-102743240D02*
X121803140Y-98140760D01*
X121803140Y-98140760D02*
X125404860Y-98140760D01*
X125404860Y-98140760D02*
X125404860Y-102743240D01*
X125404860Y-102743240D02*
X121803140Y-102743240D01*
X117739140Y-98940860D02*
X118440180Y-98940860D01*
X118440180Y-98940860D02*
X118440180Y-98140760D01*
X117739140Y-102743240D02*
X117739140Y-98140760D01*
X117739140Y-98140760D02*
X121340860Y-98140760D01*
X121340860Y-98140760D02*
X121340860Y-102743240D01*
X121340860Y-102743240D02*
X117739140Y-102743240D01*
X127160000Y-87488000D02*
X135161000Y-87488000D01*
X127160000Y-94092000D02*
X127160000Y-84059000D01*
X135161000Y-94092000D02*
X135161000Y-84059000D01*
X153576000Y-87488000D02*
X161577000Y-87488000D01*
X153576000Y-94092000D02*
X153576000Y-84059000D01*
X161577000Y-94092000D02*
X161577000Y-84059000D01*
X146209905Y-96846381D02*
X146209905Y-97655905D01*
X146162286Y-97751143D01*
X146114667Y-97798762D01*
X146019429Y-97846381D01*
X145828952Y-97846381D01*
X145733714Y-97798762D01*
X145686095Y-97751143D01*
X145638476Y-97655905D01*
X145638476Y-96846381D01*
X144638476Y-97846381D02*
X145209905Y-97846381D01*
X144924191Y-97846381D02*
X144924191Y-96846381D01*
X145019429Y-96989238D01*
X145114667Y-97084476D01*
X145209905Y-97132095D01*
X125580381Y-79193334D02*
X125104190Y-78860000D01*
X125580381Y-78621905D02*
X124580381Y-78621905D01*
X124580381Y-79002858D01*
X124628000Y-79098096D01*
X124675619Y-79145715D01*
X124770857Y-79193334D01*
X124913714Y-79193334D01*
X125008952Y-79145715D01*
X125056571Y-79098096D01*
X125104190Y-79002858D01*
X125104190Y-78621905D01*
X124913714Y-80050477D02*
X125580381Y-80050477D01*
X124532762Y-79812381D02*
X125247048Y-79574286D01*
X125247048Y-80193334D01*
X124056381Y-79193334D02*
X123580190Y-78860000D01*
X124056381Y-78621905D02*
X123056381Y-78621905D01*
X123056381Y-79002858D01*
X123104000Y-79098096D01*
X123151619Y-79145715D01*
X123246857Y-79193334D01*
X123389714Y-79193334D01*
X123484952Y-79145715D01*
X123532571Y-79098096D01*
X123580190Y-79002858D01*
X123580190Y-78621905D01*
X123056381Y-80098096D02*
X123056381Y-79621905D01*
X123532571Y-79574286D01*
X123484952Y-79621905D01*
X123437333Y-79717143D01*
X123437333Y-79955239D01*
X123484952Y-80050477D01*
X123532571Y-80098096D01*
X123627810Y-80145715D01*
X123865905Y-80145715D01*
X123961143Y-80098096D01*
X124008762Y-80050477D01*
X124056381Y-79955239D01*
X124056381Y-79717143D01*
X124008762Y-79621905D01*
X123961143Y-79574286D01*
X125580381Y-82241334D02*
X125104190Y-81908000D01*
X125580381Y-81669905D02*
X124580381Y-81669905D01*
X124580381Y-82050858D01*
X124628000Y-82146096D01*
X124675619Y-82193715D01*
X124770857Y-82241334D01*
X124913714Y-82241334D01*
X125008952Y-82193715D01*
X125056571Y-82146096D01*
X125104190Y-82050858D01*
X125104190Y-81669905D01*
X124580381Y-83098477D02*
X124580381Y-82908000D01*
X124628000Y-82812762D01*
X124675619Y-82765143D01*
X124818476Y-82669905D01*
X125008952Y-82622286D01*
X125389905Y-82622286D01*
X125485143Y-82669905D01*
X125532762Y-82717524D01*
X125580381Y-82812762D01*
X125580381Y-83003239D01*
X125532762Y-83098477D01*
X125485143Y-83146096D01*
X125389905Y-83193715D01*
X125151810Y-83193715D01*
X125056571Y-83146096D01*
X125008952Y-83098477D01*
X124961333Y-83003239D01*
X124961333Y-82812762D01*
X125008952Y-82717524D01*
X125056571Y-82669905D01*
X125151810Y-82622286D01*
X124056381Y-82241334D02*
X123580190Y-81908000D01*
X124056381Y-81669905D02*
X123056381Y-81669905D01*
X123056381Y-82050858D01*
X123104000Y-82146096D01*
X123151619Y-82193715D01*
X123246857Y-82241334D01*
X123389714Y-82241334D01*
X123484952Y-82193715D01*
X123532571Y-82146096D01*
X123580190Y-82050858D01*
X123580190Y-81669905D01*
X123056381Y-82574667D02*
X123056381Y-83241334D01*
X124056381Y-82812762D01*
X143582666Y-80320381D02*
X143916000Y-79844190D01*
X144154095Y-80320381D02*
X144154095Y-79320381D01*
X143773142Y-79320381D01*
X143677904Y-79368000D01*
X143630285Y-79415619D01*
X143582666Y-79510857D01*
X143582666Y-79653714D01*
X143630285Y-79748952D01*
X143677904Y-79796571D01*
X143773142Y-79844190D01*
X144154095Y-79844190D01*
X143011238Y-79748952D02*
X143106476Y-79701333D01*
X143154095Y-79653714D01*
X143201714Y-79558476D01*
X143201714Y-79510857D01*
X143154095Y-79415619D01*
X143106476Y-79368000D01*
X143011238Y-79320381D01*
X142820761Y-79320381D01*
X142725523Y-79368000D01*
X142677904Y-79415619D01*
X142630285Y-79510857D01*
X142630285Y-79558476D01*
X142677904Y-79653714D01*
X142725523Y-79701333D01*
X142820761Y-79748952D01*
X143011238Y-79748952D01*
X143106476Y-79796571D01*
X143154095Y-79844190D01*
X143201714Y-79939429D01*
X143201714Y-80129905D01*
X143154095Y-80225143D01*
X143106476Y-80272762D01*
X143011238Y-80320381D01*
X142820761Y-80320381D01*
X142725523Y-80272762D01*
X142677904Y-80225143D01*
X142630285Y-80129905D01*
X142630285Y-79939429D01*
X142677904Y-79844190D01*
X142725523Y-79796571D01*
X142820761Y-79748952D01*
X132152666Y-80574381D02*
X132486000Y-80098190D01*
X132724095Y-80574381D02*
X132724095Y-79574381D01*
X132343142Y-79574381D01*
X132247904Y-79622000D01*
X132200285Y-79669619D01*
X132152666Y-79764857D01*
X132152666Y-79907714D01*
X132200285Y-80002952D01*
X132247904Y-80050571D01*
X132343142Y-80098190D01*
X132724095Y-80098190D01*
X131676476Y-80574381D02*
X131486000Y-80574381D01*
X131390761Y-80526762D01*
X131343142Y-80479143D01*
X131247904Y-80336286D01*
X131200285Y-80145810D01*
X131200285Y-79764857D01*
X131247904Y-79669619D01*
X131295523Y-79622000D01*
X131390761Y-79574381D01*
X131581238Y-79574381D01*
X131676476Y-79622000D01*
X131724095Y-79669619D01*
X131771714Y-79764857D01*
X131771714Y-80002952D01*
X131724095Y-80098190D01*
X131676476Y-80145810D01*
X131581238Y-80193429D01*
X131390761Y-80193429D01*
X131295523Y-80145810D01*
X131247904Y-80098190D01*
X131200285Y-80002952D01*
X155488857Y-80320381D02*
X155822191Y-79844190D01*
X156060286Y-80320381D02*
X156060286Y-79320381D01*
X155679333Y-79320381D01*
X155584095Y-79368000D01*
X155536476Y-79415619D01*
X155488857Y-79510857D01*
X155488857Y-79653714D01*
X155536476Y-79748952D01*
X155584095Y-79796571D01*
X155679333Y-79844190D01*
X156060286Y-79844190D01*
X154536476Y-80320381D02*
X155107905Y-80320381D01*
X154822191Y-80320381D02*
X154822191Y-79320381D01*
X154917429Y-79463238D01*
X155012667Y-79558476D01*
X155107905Y-79606095D01*
X153917429Y-79320381D02*
X153822190Y-79320381D01*
X153726952Y-79368000D01*
X153679333Y-79415619D01*
X153631714Y-79510857D01*
X153584095Y-79701333D01*
X153584095Y-79939429D01*
X153631714Y-80129905D01*
X153679333Y-80225143D01*
X153726952Y-80272762D01*
X153822190Y-80320381D01*
X153917429Y-80320381D01*
X154012667Y-80272762D01*
X154060286Y-80225143D01*
X154107905Y-80129905D01*
X154155524Y-79939429D01*
X154155524Y-79701333D01*
X154107905Y-79510857D01*
X154060286Y-79415619D01*
X154012667Y-79368000D01*
X153917429Y-79320381D01*
X125834381Y-88877143D02*
X125358190Y-88543809D01*
X125834381Y-88305714D02*
X124834381Y-88305714D01*
X124834381Y-88686667D01*
X124882000Y-88781905D01*
X124929619Y-88829524D01*
X125024857Y-88877143D01*
X125167714Y-88877143D01*
X125262952Y-88829524D01*
X125310571Y-88781905D01*
X125358190Y-88686667D01*
X125358190Y-88305714D01*
X125834381Y-89829524D02*
X125834381Y-89258095D01*
X125834381Y-89543809D02*
X124834381Y-89543809D01*
X124977238Y-89448571D01*
X125072476Y-89353333D01*
X125120095Y-89258095D01*
X125834381Y-90781905D02*
X125834381Y-90210476D01*
X125834381Y-90496190D02*
X124834381Y-90496190D01*
X124977238Y-90400952D01*
X125072476Y-90305714D01*
X125120095Y-90210476D01*
X124310381Y-88623143D02*
X123834190Y-88289809D01*
X124310381Y-88051714D02*
X123310381Y-88051714D01*
X123310381Y-88432667D01*
X123358000Y-88527905D01*
X123405619Y-88575524D01*
X123500857Y-88623143D01*
X123643714Y-88623143D01*
X123738952Y-88575524D01*
X123786571Y-88527905D01*
X123834190Y-88432667D01*
X123834190Y-88051714D01*
X124310381Y-89575524D02*
X124310381Y-89004095D01*
X124310381Y-89289809D02*
X123310381Y-89289809D01*
X123453238Y-89194571D01*
X123548476Y-89099333D01*
X123596095Y-89004095D01*
X123405619Y-89956476D02*
X123358000Y-90004095D01*
X123310381Y-90099333D01*
X123310381Y-90337429D01*
X123358000Y-90432667D01*
X123405619Y-90480286D01*
X123500857Y-90527905D01*
X123596095Y-90527905D01*
X123738952Y-90480286D01*
X124310381Y-89908857D01*
X124310381Y-90527905D01*
X148884857Y-80320381D02*
X149218191Y-79844190D01*
X149456286Y-80320381D02*
X149456286Y-79320381D01*
X149075333Y-79320381D01*
X148980095Y-79368000D01*
X148932476Y-79415619D01*
X148884857Y-79510857D01*
X148884857Y-79653714D01*
X148932476Y-79748952D01*
X148980095Y-79796571D01*
X149075333Y-79844190D01*
X149456286Y-79844190D01*
X147932476Y-80320381D02*
X148503905Y-80320381D01*
X148218191Y-80320381D02*
X148218191Y-79320381D01*
X148313429Y-79463238D01*
X148408667Y-79558476D01*
X148503905Y-79606095D01*
X147599143Y-79320381D02*
X146980095Y-79320381D01*
X147313429Y-79701333D01*
X147170571Y-79701333D01*
X147075333Y-79748952D01*
X147027714Y-79796571D01*
X146980095Y-79891810D01*
X146980095Y-80129905D01*
X147027714Y-80225143D01*
X147075333Y-80272762D01*
X147170571Y-80320381D01*
X147456286Y-80320381D01*
X147551524Y-80272762D01*
X147599143Y-80225143D01*
X160060857Y-80320381D02*
X160394191Y-79844190D01*
X160632286Y-80320381D02*
X160632286Y-79320381D01*
X160251333Y-79320381D01*
X160156095Y-79368000D01*
X160108476Y-79415619D01*
X160060857Y-79510857D01*
X160060857Y-79653714D01*
X160108476Y-79748952D01*
X160156095Y-79796571D01*
X160251333Y-79844190D01*
X160632286Y-79844190D01*
X159108476Y-80320381D02*
X159679905Y-80320381D01*
X159394191Y-80320381D02*
X159394191Y-79320381D01*
X159489429Y-79463238D01*
X159584667Y-79558476D01*
X159679905Y-79606095D01*
X158251333Y-79653714D02*
X158251333Y-80320381D01*
X158489429Y-79272762D02*
X158727524Y-79987048D01*
X158108476Y-79987048D01*
X137200857Y-80574381D02*
X137534191Y-80098190D01*
X137772286Y-80574381D02*
X137772286Y-79574381D01*
X137391333Y-79574381D01*
X137296095Y-79622000D01*
X137248476Y-79669619D01*
X137200857Y-79764857D01*
X137200857Y-79907714D01*
X137248476Y-80002952D01*
X137296095Y-80050571D01*
X137391333Y-80098190D01*
X137772286Y-80098190D01*
X136248476Y-80574381D02*
X136819905Y-80574381D01*
X136534191Y-80574381D02*
X136534191Y-79574381D01*
X136629429Y-79717238D01*
X136724667Y-79812476D01*
X136819905Y-79860095D01*
X135343714Y-79574381D02*
X135819905Y-79574381D01*
X135867524Y-80050571D01*
X135819905Y-80002952D01*
X135724667Y-79955333D01*
X135486571Y-79955333D01*
X135391333Y-80002952D01*
X135343714Y-80050571D01*
X135296095Y-80145810D01*
X135296095Y-80383905D01*
X135343714Y-80479143D01*
X135391333Y-80526762D01*
X135486571Y-80574381D01*
X135724667Y-80574381D01*
X135819905Y-80526762D01*
X135867524Y-80479143D01*
X125834381Y-93195143D02*
X125358190Y-92861809D01*
X125834381Y-92623714D02*
X124834381Y-92623714D01*
X124834381Y-93004667D01*
X124882000Y-93099905D01*
X124929619Y-93147524D01*
X125024857Y-93195143D01*
X125167714Y-93195143D01*
X125262952Y-93147524D01*
X125310571Y-93099905D01*
X125358190Y-93004667D01*
X125358190Y-92623714D01*
X125834381Y-94147524D02*
X125834381Y-93576095D01*
X125834381Y-93861809D02*
X124834381Y-93861809D01*
X124977238Y-93766571D01*
X125072476Y-93671333D01*
X125120095Y-93576095D01*
X124834381Y-95004667D02*
X124834381Y-94814190D01*
X124882000Y-94718952D01*
X124929619Y-94671333D01*
X125072476Y-94576095D01*
X125262952Y-94528476D01*
X125643905Y-94528476D01*
X125739143Y-94576095D01*
X125786762Y-94623714D01*
X125834381Y-94718952D01*
X125834381Y-94909429D01*
X125786762Y-95004667D01*
X125739143Y-95052286D01*
X125643905Y-95099905D01*
X125405810Y-95099905D01*
X125310571Y-95052286D01*
X125262952Y-95004667D01*
X125215333Y-94909429D01*
X125215333Y-94718952D01*
X125262952Y-94623714D01*
X125310571Y-94576095D01*
X125405810Y-94528476D01*
X124056381Y-93195143D02*
X123580190Y-92861809D01*
X124056381Y-92623714D02*
X123056381Y-92623714D01*
X123056381Y-93004667D01*
X123104000Y-93099905D01*
X123151619Y-93147524D01*
X123246857Y-93195143D01*
X123389714Y-93195143D01*
X123484952Y-93147524D01*
X123532571Y-93099905D01*
X123580190Y-93004667D01*
X123580190Y-92623714D01*
X124056381Y-94147524D02*
X124056381Y-93576095D01*
X124056381Y-93861809D02*
X123056381Y-93861809D01*
X123199238Y-93766571D01*
X123294476Y-93671333D01*
X123342095Y-93576095D01*
X123056381Y-94480857D02*
X123056381Y-95147524D01*
X124056381Y-94718952D01*
X155806381Y-102085143D02*
X155330190Y-101751809D01*
X155806381Y-101513714D02*
X154806381Y-101513714D01*
X154806381Y-101894667D01*
X154854000Y-101989905D01*
X154901619Y-102037524D01*
X154996857Y-102085143D01*
X155139714Y-102085143D01*
X155234952Y-102037524D01*
X155282571Y-101989905D01*
X155330190Y-101894667D01*
X155330190Y-101513714D01*
X155806381Y-103037524D02*
X155806381Y-102466095D01*
X155806381Y-102751809D02*
X154806381Y-102751809D01*
X154949238Y-102656571D01*
X155044476Y-102561333D01*
X155092095Y-102466095D01*
X155234952Y-103608952D02*
X155187333Y-103513714D01*
X155139714Y-103466095D01*
X155044476Y-103418476D01*
X154996857Y-103418476D01*
X154901619Y-103466095D01*
X154854000Y-103513714D01*
X154806381Y-103608952D01*
X154806381Y-103799429D01*
X154854000Y-103894667D01*
X154901619Y-103942286D01*
X154996857Y-103989905D01*
X155044476Y-103989905D01*
X155139714Y-103942286D01*
X155187333Y-103894667D01*
X155234952Y-103799429D01*
X155234952Y-103608952D01*
X155282571Y-103513714D01*
X155330190Y-103466095D01*
X155425429Y-103418476D01*
X155615905Y-103418476D01*
X155711143Y-103466095D01*
X155758762Y-103513714D01*
X155806381Y-103608952D01*
X155806381Y-103799429D01*
X155758762Y-103894667D01*
X155711143Y-103942286D01*
X155615905Y-103989905D01*
X155425429Y-103989905D01*
X155330190Y-103942286D01*
X155282571Y-103894667D01*
X155234952Y-103799429D01*
X143868381Y-101831143D02*
X143392190Y-101497809D01*
X143868381Y-101259714D02*
X142868381Y-101259714D01*
X142868381Y-101640667D01*
X142916000Y-101735905D01*
X142963619Y-101783524D01*
X143058857Y-101831143D01*
X143201714Y-101831143D01*
X143296952Y-101783524D01*
X143344571Y-101735905D01*
X143392190Y-101640667D01*
X143392190Y-101259714D01*
X143868381Y-102783524D02*
X143868381Y-102212095D01*
X143868381Y-102497809D02*
X142868381Y-102497809D01*
X143011238Y-102402571D01*
X143106476Y-102307333D01*
X143154095Y-102212095D01*
X143868381Y-103259714D02*
X143868381Y-103450190D01*
X143820762Y-103545429D01*
X143773143Y-103593048D01*
X143630286Y-103688286D01*
X143439810Y-103735905D01*
X143058857Y-103735905D01*
X142963619Y-103688286D01*
X142916000Y-103640667D01*
X142868381Y-103545429D01*
X142868381Y-103354952D01*
X142916000Y-103259714D01*
X142963619Y-103212095D01*
X143058857Y-103164476D01*
X143296952Y-103164476D01*
X143392190Y-103212095D01*
X143439810Y-103259714D01*
X143487429Y-103354952D01*
X143487429Y-103545429D01*
X143439810Y-103640667D01*
X143392190Y-103688286D01*
X143296952Y-103735905D01*
X133454381Y-102085143D02*
X132978190Y-101751809D01*
X133454381Y-101513714D02*
X132454381Y-101513714D01*
X132454381Y-101894667D01*
X132502000Y-101989905D01*
X132549619Y-102037524D01*
X132644857Y-102085143D01*
X132787714Y-102085143D01*
X132882952Y-102037524D01*
X132930571Y-101989905D01*
X132978190Y-101894667D01*
X132978190Y-101513714D01*
X132549619Y-102466095D02*
X132502000Y-102513714D01*
X132454381Y-102608952D01*
X132454381Y-102847048D01*
X132502000Y-102942286D01*
X132549619Y-102989905D01*
X132644857Y-103037524D01*
X132740095Y-103037524D01*
X132882952Y-102989905D01*
X133454381Y-102418476D01*
X133454381Y-103037524D01*
X132454381Y-103656571D02*
X132454381Y-103751810D01*
X132502000Y-103847048D01*
X132549619Y-103894667D01*
X132644857Y-103942286D01*
X132835333Y-103989905D01*
X133073429Y-103989905D01*
X133263905Y-103942286D01*
X133359143Y-103894667D01*
X133406762Y-103847048D01*
X133454381Y-103751810D01*
X133454381Y-103656571D01*
X133406762Y-103561333D01*
X133359143Y-103513714D01*
X133263905Y-103466095D01*
X133073429Y-103418476D01*
X132835333Y-103418476D01*
X132644857Y-103466095D01*
X132549619Y-103513714D01*
X132502000Y-103561333D01*
X132454381Y-103656571D01*
X164378857Y-117404381D02*
X164712191Y-116928190D01*
X164950286Y-117404381D02*
X164950286Y-116404381D01*
X164569333Y-116404381D01*
X164474095Y-116452000D01*
X164426476Y-116499619D01*
X164378857Y-116594857D01*
X164378857Y-116737714D01*
X164426476Y-116832952D01*
X164474095Y-116880571D01*
X164569333Y-116928190D01*
X164950286Y-116928190D01*
X163997905Y-116499619D02*
X163950286Y-116452000D01*
X163855048Y-116404381D01*
X163616952Y-116404381D01*
X163521714Y-116452000D01*
X163474095Y-116499619D01*
X163426476Y-116594857D01*
X163426476Y-116690095D01*
X163474095Y-116832952D01*
X164045524Y-117404381D01*
X163426476Y-117404381D01*
X162474095Y-117404381D02*
X163045524Y-117404381D01*
X162759810Y-117404381D02*
X162759810Y-116404381D01*
X162855048Y-116547238D01*
X162950286Y-116642476D01*
X163045524Y-116690095D01*
X146344857Y-117404381D02*
X146678191Y-116928190D01*
X146916286Y-117404381D02*
X146916286Y-116404381D01*
X146535333Y-116404381D01*
X146440095Y-116452000D01*
X146392476Y-116499619D01*
X146344857Y-116594857D01*
X146344857Y-116737714D01*
X146392476Y-116832952D01*
X146440095Y-116880571D01*
X146535333Y-116928190D01*
X146916286Y-116928190D01*
X145963905Y-116499619D02*
X145916286Y-116452000D01*
X145821048Y-116404381D01*
X145582952Y-116404381D01*
X145487714Y-116452000D01*
X145440095Y-116499619D01*
X145392476Y-116594857D01*
X145392476Y-116690095D01*
X145440095Y-116832952D01*
X146011524Y-117404381D01*
X145392476Y-117404381D01*
X145011524Y-116499619D02*
X144963905Y-116452000D01*
X144868667Y-116404381D01*
X144630571Y-116404381D01*
X144535333Y-116452000D01*
X144487714Y-116499619D01*
X144440095Y-116594857D01*
X144440095Y-116690095D01*
X144487714Y-116832952D01*
X145059143Y-117404381D01*
X144440095Y-117404381D01*
X136438857Y-117150381D02*
X136772191Y-116674190D01*
X137010286Y-117150381D02*
X137010286Y-116150381D01*
X136629333Y-116150381D01*
X136534095Y-116198000D01*
X136486476Y-116245619D01*
X136438857Y-116340857D01*
X136438857Y-116483714D01*
X136486476Y-116578952D01*
X136534095Y-116626571D01*
X136629333Y-116674190D01*
X137010286Y-116674190D01*
X136057905Y-116245619D02*
X136010286Y-116198000D01*
X135915048Y-116150381D01*
X135676952Y-116150381D01*
X135581714Y-116198000D01*
X135534095Y-116245619D01*
X135486476Y-116340857D01*
X135486476Y-116436095D01*
X135534095Y-116578952D01*
X136105524Y-117150381D01*
X135486476Y-117150381D01*
X135153143Y-116150381D02*
X134534095Y-116150381D01*
X134867429Y-116531333D01*
X134724571Y-116531333D01*
X134629333Y-116578952D01*
X134581714Y-116626571D01*
X134534095Y-116721810D01*
X134534095Y-116959905D01*
X134581714Y-117055143D01*
X134629333Y-117102762D01*
X134724571Y-117150381D01*
X135010286Y-117150381D01*
X135105524Y-117102762D01*
X135153143Y-117055143D01*
X123056381Y-99680095D02*
X123865905Y-99680095D01*
X123961143Y-99727714D01*
X124008762Y-99775333D01*
X124056381Y-99870571D01*
X124056381Y-100061048D01*
X124008762Y-100156286D01*
X123961143Y-100203905D01*
X123865905Y-100251524D01*
X123056381Y-100251524D01*
X123389714Y-101156286D02*
X124056381Y-101156286D01*
X123008762Y-100918190D02*
X123723048Y-100680095D01*
X123723048Y-101299143D01*
X118230381Y-99934095D02*
X119039905Y-99934095D01*
X119135143Y-99981714D01*
X119182762Y-100029333D01*
X119230381Y-100124571D01*
X119230381Y-100315048D01*
X119182762Y-100410286D01*
X119135143Y-100457905D01*
X119039905Y-100505524D01*
X118230381Y-100505524D01*
X118230381Y-101457905D02*
X118230381Y-100981714D01*
X118706571Y-100934095D01*
X118658952Y-100981714D01*
X118611333Y-101076952D01*
X118611333Y-101315048D01*
X118658952Y-101410286D01*
X118706571Y-101457905D01*
X118801810Y-101505524D01*
X119039905Y-101505524D01*
X119135143Y-101457905D01*
X119182762Y-101410286D01*
X119230381Y-101315048D01*
X119230381Y-101076952D01*
X119182762Y-100981714D01*
X119135143Y-100934095D01*
X131985905Y-96846381D02*
X131985905Y-97655905D01*
X131938286Y-97751143D01*
X131890667Y-97798762D01*
X131795429Y-97846381D01*
X131604952Y-97846381D01*
X131509714Y-97798762D01*
X131462095Y-97751143D01*
X131414476Y-97655905D01*
X131414476Y-96846381D01*
X130985905Y-96941619D02*
X130938286Y-96894000D01*
X130843048Y-96846381D01*
X130604952Y-96846381D01*
X130509714Y-96894000D01*
X130462095Y-96941619D01*
X130414476Y-97036857D01*
X130414476Y-97132095D01*
X130462095Y-97274952D01*
X131033524Y-97846381D01*
X130414476Y-97846381D01*
X158401905Y-96846381D02*
X158401905Y-97655905D01*
X158354286Y-97751143D01*
X158306667Y-97798762D01*
X158211429Y-97846381D01*
X158020952Y-97846381D01*
X157925714Y-97798762D01*
X157878095Y-97751143D01*
X157830476Y-97655905D01*
X157830476Y-96846381D01*
X157449524Y-96846381D02*
X156830476Y-96846381D01*
X157163810Y-97227333D01*
X157020952Y-97227333D01*
X156925714Y-97274952D01*
X156878095Y-97322571D01*
X156830476Y-97417810D01*
X156830476Y-97655905D01*
X156878095Y-97751143D01*
X156925714Y-97798762D01*
X157020952Y-97846381D01*
X157306667Y-97846381D01*
X157401905Y-97798762D01*
X157449524Y-97751143D01*
M02*
